<svg xmlns="http://www.w3.org/2000/svg" viewBox="-3234.812 405.343 279.456 69.693"><defs><style>.a{fill:#fff;}.a,.b{stroke:rgba(0,0,0,0);}.b{fill:#ff8b9c;}</style></defs><path class="a" d="M18.392,43.528c5.368,0,9.812-1.936,12.716-5.5L26.532,33.8a9.815,9.815,0,0,1-7.744,3.652A9.449,9.449,0,0,1,8.932,27.6a9.449,9.449,0,0,1,9.856-9.856,9.909,9.909,0,0,1,7.744,3.608l4.576-4.224c-2.9-3.52-7.348-5.456-12.672-5.456-9.592,0-16.72,6.644-16.72,15.928S8.844,43.528,18.392,43.528Zm31.768,0c9.68,0,16.852-6.732,16.852-15.928S59.84,11.672,50.16,11.672c-9.724,0-16.852,6.776-16.852,15.928S40.436,43.528,50.16,43.528Zm0-6.072c-5.5,0-9.636-4-9.636-9.856s4.136-9.856,9.636-9.856,9.636,4,9.636,9.856S55.66,37.456,50.16,37.456Zm35.9,6.072c8.756,0,13.948-5.016,13.948-14.08V12.2h-7.04V29.184c0,5.852-2.508,8.272-6.864,8.272-4.312,0-6.864-2.42-6.864-8.272V12.2H72.116V29.448C72.116,38.512,77.308,43.528,86.064,43.528ZM134.332,43l-6.908-9.9a10.013,10.013,0,0,0,6.336-9.724c0-6.908-5.148-11.176-13.376-11.176H107.052V43h7.128V34.42h6.556l5.94,8.58Zm-7.788-19.624c0,3.344-2.2,5.368-6.556,5.368H114.18V18.008h5.808C124.344,18.008,126.544,19.988,126.544,23.376Zm22.968,20.152c8.8,0,13.068-4.4,13.068-9.548,0-11.308-17.908-7.392-17.908-13.068,0-1.936,1.628-3.52,5.852-3.52a17.4,17.4,0,0,1,8.536,2.42l2.2-5.412a20.661,20.661,0,0,0-10.692-2.728c-8.756,0-12.98,4.356-12.98,9.592,0,11.44,17.908,7.48,17.908,13.244,0,1.892-1.716,3.3-5.94,3.3A18.117,18.117,0,0,1,139.392,34.6l-2.42,5.368C139.7,42.076,144.628,43.528,149.512,43.528Zm25.036-6.248V30.152h14.3V24.608h-14.3V17.92H190.74V12.2H167.464V43h23.848V37.28Z" transform="translate(-3210 399)"/><path class="b" d="M26.268,26.984a7.4,7.4,0,0,0,4.092-6.776c0-4.8-3.96-8.008-11.66-8.008H3.652V43H19.58c8.1,0,12.32-3.08,12.32-8.4A7.606,7.606,0,0,0,26.268,26.984ZM17.82,17.568c3.476,0,5.368,1.188,5.368,3.608S21.3,24.828,17.82,24.828H10.736v-7.26Zm1.232,20.064H10.736V30.02h8.316c3.7,0,5.676,1.232,5.676,3.828C24.728,36.488,22.748,37.632,19.052,37.632ZM64.592,43l-6.908-9.9a10.013,10.013,0,0,0,6.336-9.724c0-6.908-5.148-11.176-13.376-11.176H37.312V43H44.44V34.42H51L56.936,43ZM56.8,23.376c0,3.344-2.2,5.368-6.556,5.368H44.44V18.008h5.808C54.6,18.008,56.8,19.988,56.8,23.376ZM84.568,43.528c9.68,0,16.852-6.732,16.852-15.928S94.248,11.672,84.568,11.672c-9.724,0-16.852,6.776-16.852,15.928S74.844,43.528,84.568,43.528Zm0-6.072c-5.5,0-9.636-4-9.636-9.856s4.136-9.856,9.636-9.856,9.636,4,9.636,9.856S90.068,37.456,84.568,37.456ZM112.728,43h7.128V18.008h9.856V12.2h-26.84v5.808h9.856ZM154.66,12.2V24.344H140.668V12.2H133.54V43h7.128V30.372H154.66V43h7.128V12.2Zm21.516,25.08V30.152h14.3V24.608h-14.3V17.92h16.192V12.2H169.092V43H192.94V37.28ZM225.9,43l-6.908-9.9a10.013,10.013,0,0,0,6.336-9.724c0-6.908-5.148-11.176-13.376-11.176H198.616V43h7.128V34.42H212.3L218.24,43Zm-7.788-19.624c0,3.344-2.2,5.368-6.556,5.368h-5.808V18.008h5.808C215.908,18.008,218.108,19.988,218.108,23.376Zm22.968,20.152c8.8,0,13.068-4.4,13.068-9.548,0-11.308-17.908-7.392-17.908-13.068,0-1.936,1.628-3.52,5.852-3.52a17.4,17.4,0,0,1,8.536,2.42l2.2-5.412a20.661,20.661,0,0,0-10.692-2.728c-8.756,0-12.98,4.356-12.98,9.592,0,11.44,17.908,7.48,17.908,13.244,0,1.892-1.716,3.3-5.94,3.3A18.117,18.117,0,0,1,230.956,34.6l-2.42,5.368C231.264,42.076,236.192,43.528,241.076,43.528Z" transform="translate(-3210 431)"/><path class="a" d="M3.406.208A2.482,2.482,0,0,0,5.928-2.34a2.424,2.424,0,0,0-2.522-2.5A2.424,2.424,0,0,0,.884-2.34,2.482,2.482,0,0,0,3.406.208Zm13.754.1a9.351,9.351,0,0,0,7.514-3.25l-2.7-2.5a5.8,5.8,0,0,1-4.576,2.158A5.583,5.583,0,0,1,11.57-9.1a5.583,5.583,0,0,1,5.824-5.824,5.855,5.855,0,0,1,4.576,2.132l2.7-2.5a9.4,9.4,0,0,0-7.488-3.224c-5.668,0-9.88,3.926-9.88,9.412S11.518.312,17.16.312Zm18.772,0c5.72,0,9.958-3.978,9.958-9.412s-4.238-9.412-9.958-9.412c-5.746,0-9.958,4-9.958,9.412S30.186.312,35.932.312Zm0-3.588A5.552,5.552,0,0,1,30.238-9.1a5.552,5.552,0,0,1,5.694-5.824A5.552,5.552,0,0,1,41.626-9.1,5.552,5.552,0,0,1,35.932-3.276ZM69.576,0l-.052-18.2H66.066L59.358-6.89,52.546-18.2H49.062V0h3.952V-10.686l5.33,8.762h1.9l5.356-9L65.624,0Z" transform="translate(-3234 404.959) rotate(90)"/></svg>