<svg xmlns="http://www.w3.org/2000/svg" viewBox="-2260.23 1164 2117.23 1070.4"><defs><style>.a{fill:#fff;}.b,.c{fill:#db324d;}.b{opacity:0.7;}.c{opacity:0.37;}.d{fill:#fdd4d4;opacity:0.34;}</style></defs><rect class="a" width="2117" height="1070" transform="translate(-2260 1164)"/><g transform="translate(-193)"><path class="b" d="M0,2012.38s97.737-41.946,176.389-39.361,216.874,45.764,305.123,47,135.9-22.911,174.073-25.438,121.564-16.449,183.559,8.929,97.847,27.964,162.159,27.964,90.677-25.437,171.646-19.093,64.2,15.216,147.708,26.671,207.5-26.671,207.5-26.671,69.166-15.216,140.648,7.637,214.557,6.345,214.557,6.345,66.739-26.671,140.648-13.982S2117,2031.473,2117,2031.473V2061.9H0Z" transform="translate(-2067 172.495)"/><path class="c" d="M2001.659,82.925H0V0C13.917,2.787,28.315,5.787,42.238,8.689c63.517,13.234,129.2,26.919,179.848,27.643,2.385.034,4.755.051,7.086.051,58.359,0,99.713-10.35,132.942-18.667,18.621-4.661,34.7-8.686,49.381-9.679,6.62-.448,14.358-1.205,23.318-2.082,21.313-2.086,47.831-4.681,75.949-4.681,40.757,0,73.62,5.461,100.464,16.695,67.3,28.163,105.444,31.106,176.444,31.106,30.448,0,52.667-5.26,76.191-10.828,23.97-5.675,48.751-11.541,83.326-11.541,8.721,0,17.89.38,27.251,1.13,47.637,3.817,64.347,8.5,83.7,13.924,16.547,4.638,35.3,9.893,77.025,15.745a272.026,272.026,0,0,0,37.458,2.388c85.416,0,187.3-31.736,188.319-32.057.247-.055,25.057-5.52,60.092-5.52,33.219,0,64.491,4.715,92.946,14.016,27.349,8.938,67.239,13.47,118.562,13.47a1117.389,1117.389,0,0,0,114.9-6.413c.473-.194,48.051-19.361,108-19.361a261.4,261.4,0,0,1,45.038,3.807c79.368,13.931,100.975,54.678,101.185,55.088Z" transform="translate(-2067 2150.475)"/></g><path class="d" d="M373,516H24A24.028,24.028,0,0,1,0,492V396a24.028,24.028,0,0,1,24-24H373v16H48v16H373v16H48v48H373v16H48v16H373v16ZM24,388a8.009,8.009,0,0,0-8,8v96a8.009,8.009,0,0,0,8,8h8V388Zm349,64H80V436H373v16Zm0-112H88a8.009,8.009,0,0,1-8-8V147.2L29.641,131.642a8,8,0,0,1-.242-15.2l208-72a7.957,7.957,0,0,1,5.234,0L373,89.57V106.5L240,60.474,57.719,123.56,240,187.505,373,140.85v15.774l-130.289,46.9a7.8,7.8,0,0,1-5.422,0L96,152.665V324H373v16Z" transform="translate(-516 1518)"/><path class="d" d="M170.8,319.1a215.5,215.5,0,0,1-28.5-1.9V243.985l28.514,16.8a6.541,6.541,0,0,0,6.634,0l127.264-74.973v67.973c0,17.975-15.54,35.448-42.634,47.938A213.4,213.4,0,0,1,177.486,319.1q-1.681,0-3.355-.026Q172.466,319.1,170.8,319.1Zm3.329-71.525L142.3,228.814V146.757l32.683-4.016a6.532,6.532,0,1,0-1.59-12.966L142.3,133.6V56.753L174.131,38,351.986,142.785Z" transform="translate(-2402.532 1206.101)"/></svg>