<svg xmlns="http://www.w3.org/2000/svg" viewBox="-4848 2109.4 1919.1 90"><defs><style>.a,.b{fill:#db324d;}.a{opacity:0.7;}.b{opacity:0.37;}</style></defs><path class="a" d="M0,2012.38s88.6-41.946,159.9-39.361,196.6,45.764,276.6,47,123.2-22.911,157.8-25.438,110.2-16.449,166.4,8.929,88.7,27.964,147,27.964,82.2-25.437,155.6-19.093,58.2,15.216,133.9,26.671,188.1-26.671,188.1-26.671,62.7-15.216,127.5,7.637,194.5,6.345,194.5,6.345,60.5-26.671,127.5-13.982,84.3,19.093,84.3,19.093V2061.9H0Z" transform="translate(-4848 136.495)"/><path class="b" d="M2149,307.4H328V223.6c13.822,3.021,28.319,6.348,42.338,9.567C428,246.4,487.622,260.083,533.6,260.807c2.165.034,4.316.051,6.432.051,52.975,0,90.515-10.351,120.678-18.668,16.905-4.661,31.5-8.686,44.825-9.679,6.01-.448,13.035-1.205,21.17-2.082,19.346-2.085,43.416-4.68,68.937-4.68,37,0,66.829,5.461,91.2,16.7,61.089,28.163,95.717,31.106,160.167,31.106,27.641,0,47.811-5.26,69.165-10.829,21.753-5.673,44.246-11.54,75.634-11.54,7.914,0,16.237.38,24.739,1.13,43.241,3.816,58.409,8.5,75.973,13.923,15.018,4.637,32.037,9.893,69.921,15.746a224.543,224.543,0,0,0,34,2.388c77.562,0,170.023-31.736,170.948-32.056.223-.055,22.678-5.52,54.549-5.52,30.154,0,58.541,4.715,84.372,14.016,24.826,8.938,61.036,13.471,107.624,13.471a918.079,918.079,0,0,0,104.3-6.413c.43-.194,43.669-19.361,98.037-19.361a215.941,215.941,0,0,1,40.884,3.808C2129.2,266.243,2148.81,306.988,2149,307.4Z" transform="translate(-5176 1892)"/></svg>