<svg xmlns="http://www.w3.org/2000/svg" xmlns:xlink="http://www.w3.org/1999/xlink" viewBox="3274 103 692 973"><defs><style>.a{fill:url(#a);}.b,.c{fill:#fff;}.b{opacity:0.04;}.c{opacity:0.07;}</style><linearGradient id="a" x1="1" x2="0" y2="1" gradientUnits="objectBoundingBox"><stop offset="0" stop-color="#db324d"/><stop offset="0.51" stop-color="#f34965"/><stop offset="1" stop-color="#ff5e5b"/></linearGradient></defs><g transform="translate(2352)"><path class="a" d="M0,0H554a15,15,0,0,1,15,15V958a15,15,0,0,1-15,15H0a0,0,0,0,1,0,0V0A0,0,0,0,1,0,0Z" transform="translate(1045 103)"/><path class="b" d="M-2128.8,244.7H-2352l143.9-171.9h164.5v64.368Z" transform="translate(3657.6 400)"/><path class="b" d="M-2128.8,244.7H-2352l143.9-171.9h150.5v82.037Z" transform="translate(3671.6 318)"/><path class="c" d="M-1952.362,366h-301.277A212.513,212.513,0,0,1-2317,214a212.6,212.6,0,0,1,62.679-151.321A212.6,212.6,0,0,1-2103,0a212.6,212.6,0,0,1,151.321,62.679A212.6,212.6,0,0,1-1889,214a212.513,212.513,0,0,1-63.361,152Z" transform="translate(3239 710)"/><path class="c" d="M-2124.4,170.8v0H-2352l59.9-92.8h107.8l59.9,92.8Z" transform="translate(3503 25)"/></g></svg>