<svg xmlns="http://www.w3.org/2000/svg" xmlns:xlink="http://www.w3.org/1999/xlink" viewBox="3304.796 1492.016 661.205 1130.235"><defs><style>.a{fill:url(#a);}.b,.c,.d{fill:#fff;}.b{opacity:0.06;}.c{stroke:#95989a;}.c,.d{opacity:0.07;}</style><linearGradient id="a" x1="1" x2="0" y2="1" gradientUnits="objectBoundingBox"><stop offset="0" stop-color="#db324d"/><stop offset="0.51" stop-color="#f34965"/><stop offset="1" stop-color="#ff5e5b"/></linearGradient></defs><g transform="translate(2352 1428)"><path class="a" d="M0,0H554a15,15,0,0,1,15,15V958a15,15,0,0,1-15,15H0a0,0,0,0,1,0,0V0A0,0,0,0,1,0,0Z" transform="translate(1045 103)"/><path class="b" d="M3531.7,1604.1l-61.1,291.3,279.9-88.5Z" transform="translate(-1879.858 2889.597) rotate(-67)"/><path class="b" d="M3493.052,1604.1,3470.6,1711.14l102.851-32.52Z" transform="matrix(-0.891, -0.454, 0.454, -0.891, 3878.154, 3286.666)"/><path class="c" d="M-2232.223-1217.791h0l-15.154-16.251h32.582Zm124.474-117.25H-2292.7l98.928-92.252,86.027,92.252Z" transform="translate(3397 2411.542)"/><path class="d" d="M-2202-1150h-108.339A102.987,102.987,0,0,1-2352-1232.5,102.616,102.616,0,0,1-2249.5-1335a102.543,102.543,0,0,1,47.5,11.686V-1150Z" transform="translate(3816 2226)"/></g></svg>