<svg xmlns="http://www.w3.org/2000/svg" xmlns:xlink="http://www.w3.org/1999/xlink" viewBox="-2268 2373.71 2125 1070.29"><defs><style>.a,.c{fill:#fff;}.a{stroke:#95989a;}.b{fill:none;}.d{opacity:0.22;clip-path:url(#a);}.e{clip-path:url(#b);}.f{fill:#f3f2f2;}</style><clipPath id="a"><rect class="b" width="2124.6" height="1069.89"/></clipPath><clipPath id="b"><rect class="a" width="178.6" height="122.89" transform="translate(-1978 3981)"/></clipPath></defs><rect class="c" width="2117" height="1070" transform="translate(-2260 2374)"/><g class="d" transform="translate(-2268 2373.71)"><g transform="translate(2009 -4551.71)"><g class="e" transform="translate(-31 570.71)"><g transform="translate(-1945.475 3981)"><path class="f" d="M8.353,34.571l6.138,3.852a9.74,9.74,0,0,1,5.249-2.458l43.384-5.686a2.051,2.051,0,0,1,2.251,1.875,2.13,2.13,0,0,1-1.759,2.4L20.232,40.243a5.727,5.727,0,0,0-1.878.6l45,28.295,55-34.572L63.35,0Zm0,0" transform="translate(-4.799 0)"/><path class="f" d="M81.591,130.687,42.236,105.951v22.426c0,5.93,4.805,11.7,13.183,15.816a62.806,62.806,0,0,0,27.2,5.725,62.775,62.775,0,0,0,27.2-5.725c8.379-4.121,13.184-9.886,13.184-15.816V105.951L83.643,130.687a1.914,1.914,0,0,1-2.052,0Zm0,0" transform="translate(-24.065 -57.186)"/><path class="f" d="M12.228,229.853l-4.038-23.7-8.076,28Zm0,0" transform="translate(-0.114 -111.271)"/><path class="f" d="M16.934,133.484a6.427,6.427,0,0,0-4.038-6.066v-35.7a6.777,6.777,0,0,1,.545-2.626,6.3,6.3,0,0,1,2.888-3.18L12.48,83.485a10.73,10.73,0,0,0-2.513,3.421,11.244,11.244,0,0,0-1.109,4.811v35.7A6.537,6.537,0,0,0,5,134.959a6.091,6.091,0,0,0,6.586,4.946,6.318,6.318,0,0,0,5.351-6.42Zm0,0" transform="translate(-2.801 -45.06)"/></g></g></g><g transform="translate(2204 -4551.71)"><g class="e" transform="translate(-31 570.71)"><g transform="translate(-1945.475 3981)"><path class="f" d="M8.353,34.571l6.138,3.852a9.74,9.74,0,0,1,5.249-2.458l43.384-5.686a2.051,2.051,0,0,1,2.251,1.875,2.13,2.13,0,0,1-1.759,2.4L20.232,40.243a5.727,5.727,0,0,0-1.878.6l45,28.295,55-34.572L63.35,0Zm0,0" transform="translate(-4.799 0)"/><path class="f" d="M81.591,130.687,42.236,105.951v22.426c0,5.93,4.805,11.7,13.183,15.816a62.806,62.806,0,0,0,27.2,5.725,62.775,62.775,0,0,0,27.2-5.725c8.379-4.121,13.184-9.886,13.184-15.816V105.951L83.643,130.687a1.914,1.914,0,0,1-2.052,0Zm0,0" transform="translate(-24.065 -57.186)"/><path class="f" d="M12.228,229.853l-4.038-23.7-8.076,28Zm0,0" transform="translate(-0.114 -111.271)"/><path class="f" d="M16.934,133.484a6.427,6.427,0,0,0-4.038-6.066v-35.7a6.777,6.777,0,0,1,.545-2.626,6.3,6.3,0,0,1,2.888-3.18L12.48,83.485a10.73,10.73,0,0,0-2.513,3.421,11.244,11.244,0,0,0-1.109,4.811v35.7A6.537,6.537,0,0,0,5,134.959a6.091,6.091,0,0,0,6.586,4.946,6.318,6.318,0,0,0,5.351-6.42Zm0,0" transform="translate(-2.801 -45.06)"/></g></g></g><g transform="translate(2399 -4551.71)"><g class="e" transform="translate(-31 570.71)"><g transform="translate(-1945.475 3981)"><path class="f" d="M8.353,34.571l6.138,3.852a9.74,9.74,0,0,1,5.249-2.458l43.384-5.686a2.051,2.051,0,0,1,2.251,1.875,2.13,2.13,0,0,1-1.759,2.4L20.232,40.243a5.727,5.727,0,0,0-1.878.6l45,28.295,55-34.572L63.35,0Zm0,0" transform="translate(-4.799 0)"/><path class="f" d="M81.591,130.687,42.236,105.951v22.426c0,5.93,4.805,11.7,13.183,15.816a62.806,62.806,0,0,0,27.2,5.725,62.775,62.775,0,0,0,27.2-5.725c8.379-4.121,13.184-9.886,13.184-15.816V105.951L83.643,130.687a1.914,1.914,0,0,1-2.052,0Zm0,0" transform="translate(-24.065 -57.186)"/><path class="f" d="M12.228,229.853l-4.038-23.7-8.076,28Zm0,0" transform="translate(-0.114 -111.271)"/><path class="f" d="M16.934,133.484a6.427,6.427,0,0,0-4.038-6.066v-35.7a6.777,6.777,0,0,1,.545-2.626,6.3,6.3,0,0,1,2.888-3.18L12.48,83.485a10.73,10.73,0,0,0-2.513,3.421,11.244,11.244,0,0,0-1.109,4.811v35.7A6.537,6.537,0,0,0,5,134.959a6.091,6.091,0,0,0,6.586,4.946,6.318,6.318,0,0,0,5.351-6.42Zm0,0" transform="translate(-2.801 -45.06)"/></g></g></g><g transform="translate(2594 -4551.71)"><g class="e" transform="translate(-31 570.71)"><g transform="translate(-1945.475 3981)"><path class="f" d="M8.353,34.571l6.138,3.852a9.74,9.74,0,0,1,5.249-2.458l43.384-5.686a2.051,2.051,0,0,1,2.251,1.875,2.13,2.13,0,0,1-1.759,2.4L20.232,40.243a5.727,5.727,0,0,0-1.878.6l45,28.295,55-34.572L63.35,0Zm0,0" transform="translate(-4.799 0)"/><path class="f" d="M81.591,130.687,42.236,105.951v22.426c0,5.93,4.805,11.7,13.183,15.816a62.806,62.806,0,0,0,27.2,5.725,62.775,62.775,0,0,0,27.2-5.725c8.379-4.121,13.184-9.886,13.184-15.816V105.951L83.643,130.687a1.914,1.914,0,0,1-2.052,0Zm0,0" transform="translate(-24.065 -57.186)"/><path class="f" d="M12.228,229.853l-4.038-23.7-8.076,28Zm0,0" transform="translate(-0.114 -111.271)"/><path class="f" d="M16.934,133.484a6.427,6.427,0,0,0-4.038-6.066v-35.7a6.777,6.777,0,0,1,.545-2.626,6.3,6.3,0,0,1,2.888-3.18L12.48,83.485a10.73,10.73,0,0,0-2.513,3.421,11.244,11.244,0,0,0-1.109,4.811v35.7A6.537,6.537,0,0,0,5,134.959a6.091,6.091,0,0,0,6.586,4.946,6.318,6.318,0,0,0,5.351-6.42Zm0,0" transform="translate(-2.801 -45.06)"/></g></g></g><g transform="translate(2789 -4551.71)"><g class="e" transform="translate(-31 570.71)"><g transform="translate(-1945.475 3981)"><path class="f" d="M8.353,34.571l6.138,3.852a9.74,9.74,0,0,1,5.249-2.458l43.384-5.686a2.051,2.051,0,0,1,2.251,1.875,2.13,2.13,0,0,1-1.759,2.4L20.232,40.243a5.727,5.727,0,0,0-1.878.6l45,28.295,55-34.572L63.35,0Zm0,0" transform="translate(-4.799 0)"/><path class="f" d="M81.591,130.687,42.236,105.951v22.426c0,5.93,4.805,11.7,13.183,15.816a62.806,62.806,0,0,0,27.2,5.725,62.775,62.775,0,0,0,27.2-5.725c8.379-4.121,13.184-9.886,13.184-15.816V105.951L83.643,130.687a1.914,1.914,0,0,1-2.052,0Zm0,0" transform="translate(-24.065 -57.186)"/><path class="f" d="M12.228,229.853l-4.038-23.7-8.076,28Zm0,0" transform="translate(-0.114 -111.271)"/><path class="f" d="M16.934,133.484a6.427,6.427,0,0,0-4.038-6.066v-35.7a6.777,6.777,0,0,1,.545-2.626,6.3,6.3,0,0,1,2.888-3.18L12.48,83.485a10.73,10.73,0,0,0-2.513,3.421,11.244,11.244,0,0,0-1.109,4.811v35.7A6.537,6.537,0,0,0,5,134.959a6.091,6.091,0,0,0,6.586,4.946,6.318,6.318,0,0,0,5.351-6.42Zm0,0" transform="translate(-2.801 -45.06)"/></g></g></g><g transform="translate(2984 -4551.71)"><g class="e" transform="translate(-31 570.71)"><g transform="translate(-1945.475 3981)"><path class="f" d="M8.353,34.571l6.138,3.852a9.74,9.74,0,0,1,5.249-2.458l43.384-5.686a2.051,2.051,0,0,1,2.251,1.875,2.13,2.13,0,0,1-1.759,2.4L20.232,40.243a5.727,5.727,0,0,0-1.878.6l45,28.295,55-34.572L63.35,0Zm0,0" transform="translate(-4.799 0)"/><path class="f" d="M81.591,130.687,42.236,105.951v22.426c0,5.93,4.805,11.7,13.183,15.816a62.806,62.806,0,0,0,27.2,5.725,62.775,62.775,0,0,0,27.2-5.725c8.379-4.121,13.184-9.886,13.184-15.816V105.951L83.643,130.687a1.914,1.914,0,0,1-2.052,0Zm0,0" transform="translate(-24.065 -57.186)"/><path class="f" d="M12.228,229.853l-4.038-23.7-8.076,28Zm0,0" transform="translate(-0.114 -111.271)"/><path class="f" d="M16.934,133.484a6.427,6.427,0,0,0-4.038-6.066v-35.7a6.777,6.777,0,0,1,.545-2.626,6.3,6.3,0,0,1,2.888-3.18L12.48,83.485a10.73,10.73,0,0,0-2.513,3.421,11.244,11.244,0,0,0-1.109,4.811v35.7A6.537,6.537,0,0,0,5,134.959a6.091,6.091,0,0,0,6.586,4.946,6.318,6.318,0,0,0,5.351-6.42Zm0,0" transform="translate(-2.801 -45.06)"/></g></g></g><g transform="translate(3179 -4551.71)"><g class="e" transform="translate(-31 570.71)"><g transform="translate(-1945.475 3981)"><path class="f" d="M8.353,34.571l6.138,3.852a9.74,9.74,0,0,1,5.249-2.458l43.384-5.686a2.051,2.051,0,0,1,2.251,1.875,2.13,2.13,0,0,1-1.759,2.4L20.232,40.243a5.727,5.727,0,0,0-1.878.6l45,28.295,55-34.572L63.35,0Zm0,0" transform="translate(-4.799 0)"/><path class="f" d="M81.591,130.687,42.236,105.951v22.426c0,5.93,4.805,11.7,13.183,15.816a62.806,62.806,0,0,0,27.2,5.725,62.775,62.775,0,0,0,27.2-5.725c8.379-4.121,13.184-9.886,13.184-15.816V105.951L83.643,130.687a1.914,1.914,0,0,1-2.052,0Zm0,0" transform="translate(-24.065 -57.186)"/><path class="f" d="M12.228,229.853l-4.038-23.7-8.076,28Zm0,0" transform="translate(-0.114 -111.271)"/><path class="f" d="M16.934,133.484a6.427,6.427,0,0,0-4.038-6.066v-35.7a6.777,6.777,0,0,1,.545-2.626,6.3,6.3,0,0,1,2.888-3.18L12.48,83.485a10.73,10.73,0,0,0-2.513,3.421,11.244,11.244,0,0,0-1.109,4.811v35.7A6.537,6.537,0,0,0,5,134.959a6.091,6.091,0,0,0,6.586,4.946,6.318,6.318,0,0,0,5.351-6.42Zm0,0" transform="translate(-2.801 -45.06)"/></g></g></g><g transform="translate(3374 -4551.71)"><g class="e" transform="translate(-31 570.71)"><g transform="translate(-1945.475 3981)"><path class="f" d="M8.353,34.571l6.138,3.852a9.74,9.74,0,0,1,5.249-2.458l43.384-5.686a2.051,2.051,0,0,1,2.251,1.875,2.13,2.13,0,0,1-1.759,2.4L20.232,40.243a5.727,5.727,0,0,0-1.878.6l45,28.295,55-34.572L63.35,0Zm0,0" transform="translate(-4.799 0)"/><path class="f" d="M81.591,130.687,42.236,105.951v22.426c0,5.93,4.805,11.7,13.183,15.816a62.806,62.806,0,0,0,27.2,5.725,62.775,62.775,0,0,0,27.2-5.725c8.379-4.121,13.184-9.886,13.184-15.816V105.951L83.643,130.687a1.914,1.914,0,0,1-2.052,0Zm0,0" transform="translate(-24.065 -57.186)"/><path class="f" d="M12.228,229.853l-4.038-23.7-8.076,28Zm0,0" transform="translate(-0.114 -111.271)"/><path class="f" d="M16.934,133.484a6.427,6.427,0,0,0-4.038-6.066v-35.7a6.777,6.777,0,0,1,.545-2.626,6.3,6.3,0,0,1,2.888-3.18L12.48,83.485a10.73,10.73,0,0,0-2.513,3.421,11.244,11.244,0,0,0-1.109,4.811v35.7A6.537,6.537,0,0,0,5,134.959a6.091,6.091,0,0,0,6.586,4.946,6.318,6.318,0,0,0,5.351-6.42Zm0,0" transform="translate(-2.801 -45.06)"/></g></g></g><g transform="translate(3569 -4551.71)"><g class="e" transform="translate(-31 570.71)"><g transform="translate(-1945.475 3981)"><path class="f" d="M8.353,34.571l6.138,3.852a9.74,9.74,0,0,1,5.249-2.458l43.384-5.686a2.051,2.051,0,0,1,2.251,1.875,2.13,2.13,0,0,1-1.759,2.4L20.232,40.243a5.727,5.727,0,0,0-1.878.6l45,28.295,55-34.572L63.35,0Zm0,0" transform="translate(-4.799 0)"/><path class="f" d="M81.591,130.687,42.236,105.951v22.426c0,5.93,4.805,11.7,13.183,15.816a62.806,62.806,0,0,0,27.2,5.725,62.775,62.775,0,0,0,27.2-5.725c8.379-4.121,13.184-9.886,13.184-15.816V105.951L83.643,130.687a1.914,1.914,0,0,1-2.052,0Zm0,0" transform="translate(-24.065 -57.186)"/><path class="f" d="M12.228,229.853l-4.038-23.7-8.076,28Zm0,0" transform="translate(-0.114 -111.271)"/><path class="f" d="M16.934,133.484a6.427,6.427,0,0,0-4.038-6.066v-35.7a6.777,6.777,0,0,1,.545-2.626,6.3,6.3,0,0,1,2.888-3.18L12.48,83.485a10.73,10.73,0,0,0-2.513,3.421,11.244,11.244,0,0,0-1.109,4.811v35.7A6.537,6.537,0,0,0,5,134.959a6.091,6.091,0,0,0,6.586,4.946,6.318,6.318,0,0,0,5.351-6.42Zm0,0" transform="translate(-2.801 -45.06)"/></g></g></g><g transform="translate(3764 -4551.71)"><g class="e" transform="translate(-31 570.71)"><g transform="translate(-1945.475 3981)"><path class="f" d="M8.353,34.571l6.138,3.852a9.74,9.74,0,0,1,5.249-2.458l43.384-5.686a2.051,2.051,0,0,1,2.251,1.875,2.13,2.13,0,0,1-1.759,2.4L20.232,40.243a5.727,5.727,0,0,0-1.878.6l45,28.295,55-34.572L63.35,0Zm0,0" transform="translate(-4.799 0)"/><path class="f" d="M81.591,130.687,42.236,105.951v22.426c0,5.93,4.805,11.7,13.183,15.816a62.806,62.806,0,0,0,27.2,5.725,62.775,62.775,0,0,0,27.2-5.725c8.379-4.121,13.184-9.886,13.184-15.816V105.951L83.643,130.687a1.914,1.914,0,0,1-2.052,0Zm0,0" transform="translate(-24.065 -57.186)"/><path class="f" d="M12.228,229.853l-4.038-23.7-8.076,28Zm0,0" transform="translate(-0.114 -111.271)"/><path class="f" d="M16.934,133.484a6.427,6.427,0,0,0-4.038-6.066v-35.7a6.777,6.777,0,0,1,.545-2.626,6.3,6.3,0,0,1,2.888-3.18L12.48,83.485a10.73,10.73,0,0,0-2.513,3.421,11.244,11.244,0,0,0-1.109,4.811v35.7A6.537,6.537,0,0,0,5,134.959a6.091,6.091,0,0,0,6.586,4.946,6.318,6.318,0,0,0,5.351-6.42Zm0,0" transform="translate(-2.801 -45.06)"/></g></g></g><g transform="translate(3959 -4551.71)"><g class="e" transform="translate(-31 570.71)"><g transform="translate(-1945.475 3981)"><path class="f" d="M8.353,34.571l6.138,3.852a9.74,9.74,0,0,1,5.249-2.458l43.384-5.686a2.051,2.051,0,0,1,2.251,1.875,2.13,2.13,0,0,1-1.759,2.4L20.232,40.243a5.727,5.727,0,0,0-1.878.6l45,28.295,55-34.572L63.35,0Zm0,0" transform="translate(-4.799 0)"/><path class="f" d="M81.591,130.687,42.236,105.951v22.426c0,5.93,4.805,11.7,13.183,15.816a62.806,62.806,0,0,0,27.2,5.725,62.775,62.775,0,0,0,27.2-5.725c8.379-4.121,13.184-9.886,13.184-15.816V105.951L83.643,130.687a1.914,1.914,0,0,1-2.052,0Zm0,0" transform="translate(-24.065 -57.186)"/><path class="f" d="M12.228,229.853l-4.038-23.7-8.076,28Zm0,0" transform="translate(-0.114 -111.271)"/><path class="f" d="M16.934,133.484a6.427,6.427,0,0,0-4.038-6.066v-35.7a6.777,6.777,0,0,1,.545-2.626,6.3,6.3,0,0,1,2.888-3.18L12.48,83.485a10.73,10.73,0,0,0-2.513,3.421,11.244,11.244,0,0,0-1.109,4.811v35.7A6.537,6.537,0,0,0,5,134.959a6.091,6.091,0,0,0,6.586,4.946,6.318,6.318,0,0,0,5.351-6.42Zm0,0" transform="translate(-2.801 -45.06)"/></g></g></g><g transform="translate(2009 -4408.71)"><g class="e" transform="translate(-31 570.71)"><g transform="translate(-1945.475 3981)"><path class="f" d="M8.353,34.571l6.138,3.852a9.74,9.74,0,0,1,5.249-2.458l43.384-5.686a2.051,2.051,0,0,1,2.251,1.875,2.13,2.13,0,0,1-1.759,2.4L20.232,40.243a5.727,5.727,0,0,0-1.878.6l45,28.295,55-34.572L63.35,0Zm0,0" transform="translate(-4.799 0)"/><path class="f" d="M81.591,130.687,42.236,105.951v22.426c0,5.93,4.805,11.7,13.183,15.816a62.806,62.806,0,0,0,27.2,5.725,62.775,62.775,0,0,0,27.2-5.725c8.379-4.121,13.184-9.886,13.184-15.816V105.951L83.643,130.687a1.914,1.914,0,0,1-2.052,0Zm0,0" transform="translate(-24.065 -57.186)"/><path class="f" d="M12.228,229.853l-4.038-23.7-8.076,28Zm0,0" transform="translate(-0.114 -111.271)"/><path class="f" d="M16.934,133.484a6.427,6.427,0,0,0-4.038-6.066v-35.7a6.777,6.777,0,0,1,.545-2.626,6.3,6.3,0,0,1,2.888-3.18L12.48,83.485a10.73,10.73,0,0,0-2.513,3.421,11.244,11.244,0,0,0-1.109,4.811v35.7A6.537,6.537,0,0,0,5,134.959a6.091,6.091,0,0,0,6.586,4.946,6.318,6.318,0,0,0,5.351-6.42Zm0,0" transform="translate(-2.801 -45.06)"/></g></g></g><g transform="translate(2204 -4408.71)"><g class="e" transform="translate(-31 570.71)"><g transform="translate(-1945.475 3981)"><path class="f" d="M8.353,34.571l6.138,3.852a9.74,9.74,0,0,1,5.249-2.458l43.384-5.686a2.051,2.051,0,0,1,2.251,1.875,2.13,2.13,0,0,1-1.759,2.4L20.232,40.243a5.727,5.727,0,0,0-1.878.6l45,28.295,55-34.572L63.35,0Zm0,0" transform="translate(-4.799 0)"/><path class="f" d="M81.591,130.687,42.236,105.951v22.426c0,5.93,4.805,11.7,13.183,15.816a62.806,62.806,0,0,0,27.2,5.725,62.775,62.775,0,0,0,27.2-5.725c8.379-4.121,13.184-9.886,13.184-15.816V105.951L83.643,130.687a1.914,1.914,0,0,1-2.052,0Zm0,0" transform="translate(-24.065 -57.186)"/><path class="f" d="M12.228,229.853l-4.038-23.7-8.076,28Zm0,0" transform="translate(-0.114 -111.271)"/><path class="f" d="M16.934,133.484a6.427,6.427,0,0,0-4.038-6.066v-35.7a6.777,6.777,0,0,1,.545-2.626,6.3,6.3,0,0,1,2.888-3.18L12.48,83.485a10.73,10.73,0,0,0-2.513,3.421,11.244,11.244,0,0,0-1.109,4.811v35.7A6.537,6.537,0,0,0,5,134.959a6.091,6.091,0,0,0,6.586,4.946,6.318,6.318,0,0,0,5.351-6.42Zm0,0" transform="translate(-2.801 -45.06)"/></g></g></g><g transform="translate(2399 -4408.71)"><g class="e" transform="translate(-31 570.71)"><g transform="translate(-1945.475 3981)"><path class="f" d="M8.353,34.571l6.138,3.852a9.74,9.74,0,0,1,5.249-2.458l43.384-5.686a2.051,2.051,0,0,1,2.251,1.875,2.13,2.13,0,0,1-1.759,2.4L20.232,40.243a5.727,5.727,0,0,0-1.878.6l45,28.295,55-34.572L63.35,0Zm0,0" transform="translate(-4.799 0)"/><path class="f" d="M81.591,130.687,42.236,105.951v22.426c0,5.93,4.805,11.7,13.183,15.816a62.806,62.806,0,0,0,27.2,5.725,62.775,62.775,0,0,0,27.2-5.725c8.379-4.121,13.184-9.886,13.184-15.816V105.951L83.643,130.687a1.914,1.914,0,0,1-2.052,0Zm0,0" transform="translate(-24.065 -57.186)"/><path class="f" d="M12.228,229.853l-4.038-23.7-8.076,28Zm0,0" transform="translate(-0.114 -111.271)"/><path class="f" d="M16.934,133.484a6.427,6.427,0,0,0-4.038-6.066v-35.7a6.777,6.777,0,0,1,.545-2.626,6.3,6.3,0,0,1,2.888-3.18L12.48,83.485a10.73,10.73,0,0,0-2.513,3.421,11.244,11.244,0,0,0-1.109,4.811v35.7A6.537,6.537,0,0,0,5,134.959a6.091,6.091,0,0,0,6.586,4.946,6.318,6.318,0,0,0,5.351-6.42Zm0,0" transform="translate(-2.801 -45.06)"/></g></g></g><g transform="translate(2594 -4408.71)"><g class="e" transform="translate(-31 570.71)"><g transform="translate(-1945.475 3981)"><path class="f" d="M8.353,34.571l6.138,3.852a9.74,9.74,0,0,1,5.249-2.458l43.384-5.686a2.051,2.051,0,0,1,2.251,1.875,2.13,2.13,0,0,1-1.759,2.4L20.232,40.243a5.727,5.727,0,0,0-1.878.6l45,28.295,55-34.572L63.35,0Zm0,0" transform="translate(-4.799 0)"/><path class="f" d="M81.591,130.687,42.236,105.951v22.426c0,5.93,4.805,11.7,13.183,15.816a62.806,62.806,0,0,0,27.2,5.725,62.775,62.775,0,0,0,27.2-5.725c8.379-4.121,13.184-9.886,13.184-15.816V105.951L83.643,130.687a1.914,1.914,0,0,1-2.052,0Zm0,0" transform="translate(-24.065 -57.186)"/><path class="f" d="M12.228,229.853l-4.038-23.7-8.076,28Zm0,0" transform="translate(-0.114 -111.271)"/><path class="f" d="M16.934,133.484a6.427,6.427,0,0,0-4.038-6.066v-35.7a6.777,6.777,0,0,1,.545-2.626,6.3,6.3,0,0,1,2.888-3.18L12.48,83.485a10.73,10.73,0,0,0-2.513,3.421,11.244,11.244,0,0,0-1.109,4.811v35.7A6.537,6.537,0,0,0,5,134.959a6.091,6.091,0,0,0,6.586,4.946,6.318,6.318,0,0,0,5.351-6.42Zm0,0" transform="translate(-2.801 -45.06)"/></g></g></g><g transform="translate(2789 -4408.71)"><g class="e" transform="translate(-31 570.71)"><g transform="translate(-1945.475 3981)"><path class="f" d="M8.353,34.571l6.138,3.852a9.74,9.74,0,0,1,5.249-2.458l43.384-5.686a2.051,2.051,0,0,1,2.251,1.875,2.13,2.13,0,0,1-1.759,2.4L20.232,40.243a5.727,5.727,0,0,0-1.878.6l45,28.295,55-34.572L63.35,0Zm0,0" transform="translate(-4.799 0)"/><path class="f" d="M81.591,130.687,42.236,105.951v22.426c0,5.93,4.805,11.7,13.183,15.816a62.806,62.806,0,0,0,27.2,5.725,62.775,62.775,0,0,0,27.2-5.725c8.379-4.121,13.184-9.886,13.184-15.816V105.951L83.643,130.687a1.914,1.914,0,0,1-2.052,0Zm0,0" transform="translate(-24.065 -57.186)"/><path class="f" d="M12.228,229.853l-4.038-23.7-8.076,28Zm0,0" transform="translate(-0.114 -111.271)"/><path class="f" d="M16.934,133.484a6.427,6.427,0,0,0-4.038-6.066v-35.7a6.777,6.777,0,0,1,.545-2.626,6.3,6.3,0,0,1,2.888-3.18L12.48,83.485a10.73,10.73,0,0,0-2.513,3.421,11.244,11.244,0,0,0-1.109,4.811v35.7A6.537,6.537,0,0,0,5,134.959a6.091,6.091,0,0,0,6.586,4.946,6.318,6.318,0,0,0,5.351-6.42Zm0,0" transform="translate(-2.801 -45.06)"/></g></g></g><g transform="translate(2984 -4408.71)"><g class="e" transform="translate(-31 570.71)"><g transform="translate(-1945.475 3981)"><path class="f" d="M8.353,34.571l6.138,3.852a9.74,9.74,0,0,1,5.249-2.458l43.384-5.686a2.051,2.051,0,0,1,2.251,1.875,2.13,2.13,0,0,1-1.759,2.4L20.232,40.243a5.727,5.727,0,0,0-1.878.6l45,28.295,55-34.572L63.35,0Zm0,0" transform="translate(-4.799 0)"/><path class="f" d="M81.591,130.687,42.236,105.951v22.426c0,5.93,4.805,11.7,13.183,15.816a62.806,62.806,0,0,0,27.2,5.725,62.775,62.775,0,0,0,27.2-5.725c8.379-4.121,13.184-9.886,13.184-15.816V105.951L83.643,130.687a1.914,1.914,0,0,1-2.052,0Zm0,0" transform="translate(-24.065 -57.186)"/><path class="f" d="M12.228,229.853l-4.038-23.7-8.076,28Zm0,0" transform="translate(-0.114 -111.271)"/><path class="f" d="M16.934,133.484a6.427,6.427,0,0,0-4.038-6.066v-35.7a6.777,6.777,0,0,1,.545-2.626,6.3,6.3,0,0,1,2.888-3.18L12.48,83.485a10.73,10.73,0,0,0-2.513,3.421,11.244,11.244,0,0,0-1.109,4.811v35.7A6.537,6.537,0,0,0,5,134.959a6.091,6.091,0,0,0,6.586,4.946,6.318,6.318,0,0,0,5.351-6.42Zm0,0" transform="translate(-2.801 -45.06)"/></g></g></g><g transform="translate(3179 -4408.71)"><g class="e" transform="translate(-31 570.71)"><g transform="translate(-1945.475 3981)"><path class="f" d="M8.353,34.571l6.138,3.852a9.74,9.74,0,0,1,5.249-2.458l43.384-5.686a2.051,2.051,0,0,1,2.251,1.875,2.13,2.13,0,0,1-1.759,2.4L20.232,40.243a5.727,5.727,0,0,0-1.878.6l45,28.295,55-34.572L63.35,0Zm0,0" transform="translate(-4.799 0)"/><path class="f" d="M81.591,130.687,42.236,105.951v22.426c0,5.93,4.805,11.7,13.183,15.816a62.806,62.806,0,0,0,27.2,5.725,62.775,62.775,0,0,0,27.2-5.725c8.379-4.121,13.184-9.886,13.184-15.816V105.951L83.643,130.687a1.914,1.914,0,0,1-2.052,0Zm0,0" transform="translate(-24.065 -57.186)"/><path class="f" d="M12.228,229.853l-4.038-23.7-8.076,28Zm0,0" transform="translate(-0.114 -111.271)"/><path class="f" d="M16.934,133.484a6.427,6.427,0,0,0-4.038-6.066v-35.7a6.777,6.777,0,0,1,.545-2.626,6.3,6.3,0,0,1,2.888-3.18L12.48,83.485a10.73,10.73,0,0,0-2.513,3.421,11.244,11.244,0,0,0-1.109,4.811v35.7A6.537,6.537,0,0,0,5,134.959a6.091,6.091,0,0,0,6.586,4.946,6.318,6.318,0,0,0,5.351-6.42Zm0,0" transform="translate(-2.801 -45.06)"/></g></g></g><g transform="translate(3374 -4408.71)"><g class="e" transform="translate(-31 570.71)"><g transform="translate(-1945.475 3981)"><path class="f" d="M8.353,34.571l6.138,3.852a9.74,9.74,0,0,1,5.249-2.458l43.384-5.686a2.051,2.051,0,0,1,2.251,1.875,2.13,2.13,0,0,1-1.759,2.4L20.232,40.243a5.727,5.727,0,0,0-1.878.6l45,28.295,55-34.572L63.35,0Zm0,0" transform="translate(-4.799 0)"/><path class="f" d="M81.591,130.687,42.236,105.951v22.426c0,5.93,4.805,11.7,13.183,15.816a62.806,62.806,0,0,0,27.2,5.725,62.775,62.775,0,0,0,27.2-5.725c8.379-4.121,13.184-9.886,13.184-15.816V105.951L83.643,130.687a1.914,1.914,0,0,1-2.052,0Zm0,0" transform="translate(-24.065 -57.186)"/><path class="f" d="M12.228,229.853l-4.038-23.7-8.076,28Zm0,0" transform="translate(-0.114 -111.271)"/><path class="f" d="M16.934,133.484a6.427,6.427,0,0,0-4.038-6.066v-35.7a6.777,6.777,0,0,1,.545-2.626,6.3,6.3,0,0,1,2.888-3.18L12.48,83.485a10.73,10.73,0,0,0-2.513,3.421,11.244,11.244,0,0,0-1.109,4.811v35.7A6.537,6.537,0,0,0,5,134.959a6.091,6.091,0,0,0,6.586,4.946,6.318,6.318,0,0,0,5.351-6.42Zm0,0" transform="translate(-2.801 -45.06)"/></g></g></g><g transform="translate(3569 -4408.71)"><g class="e" transform="translate(-31 570.71)"><g transform="translate(-1945.475 3981)"><path class="f" d="M8.353,34.571l6.138,3.852a9.74,9.74,0,0,1,5.249-2.458l43.384-5.686a2.051,2.051,0,0,1,2.251,1.875,2.13,2.13,0,0,1-1.759,2.4L20.232,40.243a5.727,5.727,0,0,0-1.878.6l45,28.295,55-34.572L63.35,0Zm0,0" transform="translate(-4.799 0)"/><path class="f" d="M81.591,130.687,42.236,105.951v22.426c0,5.93,4.805,11.7,13.183,15.816a62.806,62.806,0,0,0,27.2,5.725,62.775,62.775,0,0,0,27.2-5.725c8.379-4.121,13.184-9.886,13.184-15.816V105.951L83.643,130.687a1.914,1.914,0,0,1-2.052,0Zm0,0" transform="translate(-24.065 -57.186)"/><path class="f" d="M12.228,229.853l-4.038-23.7-8.076,28Zm0,0" transform="translate(-0.114 -111.271)"/><path class="f" d="M16.934,133.484a6.427,6.427,0,0,0-4.038-6.066v-35.7a6.777,6.777,0,0,1,.545-2.626,6.3,6.3,0,0,1,2.888-3.18L12.48,83.485a10.73,10.73,0,0,0-2.513,3.421,11.244,11.244,0,0,0-1.109,4.811v35.7A6.537,6.537,0,0,0,5,134.959a6.091,6.091,0,0,0,6.586,4.946,6.318,6.318,0,0,0,5.351-6.42Zm0,0" transform="translate(-2.801 -45.06)"/></g></g></g><g transform="translate(3764 -4408.71)"><g class="e" transform="translate(-31 570.71)"><g transform="translate(-1945.475 3981)"><path class="f" d="M8.353,34.571l6.138,3.852a9.74,9.74,0,0,1,5.249-2.458l43.384-5.686a2.051,2.051,0,0,1,2.251,1.875,2.13,2.13,0,0,1-1.759,2.4L20.232,40.243a5.727,5.727,0,0,0-1.878.6l45,28.295,55-34.572L63.35,0Zm0,0" transform="translate(-4.799 0)"/><path class="f" d="M81.591,130.687,42.236,105.951v22.426c0,5.93,4.805,11.7,13.183,15.816a62.806,62.806,0,0,0,27.2,5.725,62.775,62.775,0,0,0,27.2-5.725c8.379-4.121,13.184-9.886,13.184-15.816V105.951L83.643,130.687a1.914,1.914,0,0,1-2.052,0Zm0,0" transform="translate(-24.065 -57.186)"/><path class="f" d="M12.228,229.853l-4.038-23.7-8.076,28Zm0,0" transform="translate(-0.114 -111.271)"/><path class="f" d="M16.934,133.484a6.427,6.427,0,0,0-4.038-6.066v-35.7a6.777,6.777,0,0,1,.545-2.626,6.3,6.3,0,0,1,2.888-3.18L12.48,83.485a10.73,10.73,0,0,0-2.513,3.421,11.244,11.244,0,0,0-1.109,4.811v35.7A6.537,6.537,0,0,0,5,134.959a6.091,6.091,0,0,0,6.586,4.946,6.318,6.318,0,0,0,5.351-6.42Zm0,0" transform="translate(-2.801 -45.06)"/></g></g></g><g transform="translate(3959 -4408.71)"><g class="e" transform="translate(-31 570.71)"><g transform="translate(-1945.475 3981)"><path class="f" d="M8.353,34.571l6.138,3.852a9.74,9.74,0,0,1,5.249-2.458l43.384-5.686a2.051,2.051,0,0,1,2.251,1.875,2.13,2.13,0,0,1-1.759,2.4L20.232,40.243a5.727,5.727,0,0,0-1.878.6l45,28.295,55-34.572L63.35,0Zm0,0" transform="translate(-4.799 0)"/><path class="f" d="M81.591,130.687,42.236,105.951v22.426c0,5.93,4.805,11.7,13.183,15.816a62.806,62.806,0,0,0,27.2,5.725,62.775,62.775,0,0,0,27.2-5.725c8.379-4.121,13.184-9.886,13.184-15.816V105.951L83.643,130.687a1.914,1.914,0,0,1-2.052,0Zm0,0" transform="translate(-24.065 -57.186)"/><path class="f" d="M12.228,229.853l-4.038-23.7-8.076,28Zm0,0" transform="translate(-0.114 -111.271)"/><path class="f" d="M16.934,133.484a6.427,6.427,0,0,0-4.038-6.066v-35.7a6.777,6.777,0,0,1,.545-2.626,6.3,6.3,0,0,1,2.888-3.18L12.48,83.485a10.73,10.73,0,0,0-2.513,3.421,11.244,11.244,0,0,0-1.109,4.811v35.7A6.537,6.537,0,0,0,5,134.959a6.091,6.091,0,0,0,6.586,4.946,6.318,6.318,0,0,0,5.351-6.42Zm0,0" transform="translate(-2.801 -45.06)"/></g></g></g><g transform="translate(2009 -4265.71)"><g class="e" transform="translate(-31 570.71)"><g transform="translate(-1945.475 3981)"><path class="f" d="M8.353,34.571l6.138,3.852a9.74,9.74,0,0,1,5.249-2.458l43.384-5.686a2.051,2.051,0,0,1,2.251,1.875,2.13,2.13,0,0,1-1.759,2.4L20.232,40.243a5.727,5.727,0,0,0-1.878.6l45,28.295,55-34.572L63.35,0Zm0,0" transform="translate(-4.799 0)"/><path class="f" d="M81.591,130.687,42.236,105.951v22.426c0,5.93,4.805,11.7,13.183,15.816a62.806,62.806,0,0,0,27.2,5.725,62.775,62.775,0,0,0,27.2-5.725c8.379-4.121,13.184-9.886,13.184-15.816V105.951L83.643,130.687a1.914,1.914,0,0,1-2.052,0Zm0,0" transform="translate(-24.065 -57.186)"/><path class="f" d="M12.228,229.853l-4.038-23.7-8.076,28Zm0,0" transform="translate(-0.114 -111.271)"/><path class="f" d="M16.934,133.484a6.427,6.427,0,0,0-4.038-6.066v-35.7a6.777,6.777,0,0,1,.545-2.626,6.3,6.3,0,0,1,2.888-3.18L12.48,83.485a10.73,10.73,0,0,0-2.513,3.421,11.244,11.244,0,0,0-1.109,4.811v35.7A6.537,6.537,0,0,0,5,134.959a6.091,6.091,0,0,0,6.586,4.946,6.318,6.318,0,0,0,5.351-6.42Zm0,0" transform="translate(-2.801 -45.06)"/></g></g></g><g transform="translate(2204 -4265.71)"><g class="e" transform="translate(-31 570.71)"><g transform="translate(-1945.475 3981)"><path class="f" d="M8.353,34.571l6.138,3.852a9.74,9.74,0,0,1,5.249-2.458l43.384-5.686a2.051,2.051,0,0,1,2.251,1.875,2.13,2.13,0,0,1-1.759,2.4L20.232,40.243a5.727,5.727,0,0,0-1.878.6l45,28.295,55-34.572L63.35,0Zm0,0" transform="translate(-4.799 0)"/><path class="f" d="M81.591,130.687,42.236,105.951v22.426c0,5.93,4.805,11.7,13.183,15.816a62.806,62.806,0,0,0,27.2,5.725,62.775,62.775,0,0,0,27.2-5.725c8.379-4.121,13.184-9.886,13.184-15.816V105.951L83.643,130.687a1.914,1.914,0,0,1-2.052,0Zm0,0" transform="translate(-24.065 -57.186)"/><path class="f" d="M12.228,229.853l-4.038-23.7-8.076,28Zm0,0" transform="translate(-0.114 -111.271)"/><path class="f" d="M16.934,133.484a6.427,6.427,0,0,0-4.038-6.066v-35.7a6.777,6.777,0,0,1,.545-2.626,6.3,6.3,0,0,1,2.888-3.18L12.48,83.485a10.73,10.73,0,0,0-2.513,3.421,11.244,11.244,0,0,0-1.109,4.811v35.7A6.537,6.537,0,0,0,5,134.959a6.091,6.091,0,0,0,6.586,4.946,6.318,6.318,0,0,0,5.351-6.42Zm0,0" transform="translate(-2.801 -45.06)"/></g></g></g><g transform="translate(2399 -4265.71)"><g class="e" transform="translate(-31 570.71)"><g transform="translate(-1945.475 3981)"><path class="f" d="M8.353,34.571l6.138,3.852a9.74,9.74,0,0,1,5.249-2.458l43.384-5.686a2.051,2.051,0,0,1,2.251,1.875,2.13,2.13,0,0,1-1.759,2.4L20.232,40.243a5.727,5.727,0,0,0-1.878.6l45,28.295,55-34.572L63.35,0Zm0,0" transform="translate(-4.799 0)"/><path class="f" d="M81.591,130.687,42.236,105.951v22.426c0,5.93,4.805,11.7,13.183,15.816a62.806,62.806,0,0,0,27.2,5.725,62.775,62.775,0,0,0,27.2-5.725c8.379-4.121,13.184-9.886,13.184-15.816V105.951L83.643,130.687a1.914,1.914,0,0,1-2.052,0Zm0,0" transform="translate(-24.065 -57.186)"/><path class="f" d="M12.228,229.853l-4.038-23.7-8.076,28Zm0,0" transform="translate(-0.114 -111.271)"/><path class="f" d="M16.934,133.484a6.427,6.427,0,0,0-4.038-6.066v-35.7a6.777,6.777,0,0,1,.545-2.626,6.3,6.3,0,0,1,2.888-3.18L12.48,83.485a10.73,10.73,0,0,0-2.513,3.421,11.244,11.244,0,0,0-1.109,4.811v35.7A6.537,6.537,0,0,0,5,134.959a6.091,6.091,0,0,0,6.586,4.946,6.318,6.318,0,0,0,5.351-6.42Zm0,0" transform="translate(-2.801 -45.06)"/></g></g></g><g transform="translate(2594 -4265.71)"><g class="e" transform="translate(-31 570.71)"><g transform="translate(-1945.475 3981)"><path class="f" d="M8.353,34.571l6.138,3.852a9.74,9.74,0,0,1,5.249-2.458l43.384-5.686a2.051,2.051,0,0,1,2.251,1.875,2.13,2.13,0,0,1-1.759,2.4L20.232,40.243a5.727,5.727,0,0,0-1.878.6l45,28.295,55-34.572L63.35,0Zm0,0" transform="translate(-4.799 0)"/><path class="f" d="M81.591,130.687,42.236,105.951v22.426c0,5.93,4.805,11.7,13.183,15.816a62.806,62.806,0,0,0,27.2,5.725,62.775,62.775,0,0,0,27.2-5.725c8.379-4.121,13.184-9.886,13.184-15.816V105.951L83.643,130.687a1.914,1.914,0,0,1-2.052,0Zm0,0" transform="translate(-24.065 -57.186)"/><path class="f" d="M12.228,229.853l-4.038-23.7-8.076,28Zm0,0" transform="translate(-0.114 -111.271)"/><path class="f" d="M16.934,133.484a6.427,6.427,0,0,0-4.038-6.066v-35.7a6.777,6.777,0,0,1,.545-2.626,6.3,6.3,0,0,1,2.888-3.18L12.48,83.485a10.73,10.73,0,0,0-2.513,3.421,11.244,11.244,0,0,0-1.109,4.811v35.7A6.537,6.537,0,0,0,5,134.959a6.091,6.091,0,0,0,6.586,4.946,6.318,6.318,0,0,0,5.351-6.42Zm0,0" transform="translate(-2.801 -45.06)"/></g></g></g><g transform="translate(2789 -4265.71)"><g class="e" transform="translate(-31 570.71)"><g transform="translate(-1945.475 3981)"><path class="f" d="M8.353,34.571l6.138,3.852a9.74,9.74,0,0,1,5.249-2.458l43.384-5.686a2.051,2.051,0,0,1,2.251,1.875,2.13,2.13,0,0,1-1.759,2.4L20.232,40.243a5.727,5.727,0,0,0-1.878.6l45,28.295,55-34.572L63.35,0Zm0,0" transform="translate(-4.799 0)"/><path class="f" d="M81.591,130.687,42.236,105.951v22.426c0,5.93,4.805,11.7,13.183,15.816a62.806,62.806,0,0,0,27.2,5.725,62.775,62.775,0,0,0,27.2-5.725c8.379-4.121,13.184-9.886,13.184-15.816V105.951L83.643,130.687a1.914,1.914,0,0,1-2.052,0Zm0,0" transform="translate(-24.065 -57.186)"/><path class="f" d="M12.228,229.853l-4.038-23.7-8.076,28Zm0,0" transform="translate(-0.114 -111.271)"/><path class="f" d="M16.934,133.484a6.427,6.427,0,0,0-4.038-6.066v-35.7a6.777,6.777,0,0,1,.545-2.626,6.3,6.3,0,0,1,2.888-3.18L12.48,83.485a10.73,10.73,0,0,0-2.513,3.421,11.244,11.244,0,0,0-1.109,4.811v35.7A6.537,6.537,0,0,0,5,134.959a6.091,6.091,0,0,0,6.586,4.946,6.318,6.318,0,0,0,5.351-6.42Zm0,0" transform="translate(-2.801 -45.06)"/></g></g></g><g transform="translate(2984 -4265.71)"><g class="e" transform="translate(-31 570.71)"><g transform="translate(-1945.475 3981)"><path class="f" d="M8.353,34.571l6.138,3.852a9.74,9.74,0,0,1,5.249-2.458l43.384-5.686a2.051,2.051,0,0,1,2.251,1.875,2.13,2.13,0,0,1-1.759,2.4L20.232,40.243a5.727,5.727,0,0,0-1.878.6l45,28.295,55-34.572L63.35,0Zm0,0" transform="translate(-4.799 0)"/><path class="f" d="M81.591,130.687,42.236,105.951v22.426c0,5.93,4.805,11.7,13.183,15.816a62.806,62.806,0,0,0,27.2,5.725,62.775,62.775,0,0,0,27.2-5.725c8.379-4.121,13.184-9.886,13.184-15.816V105.951L83.643,130.687a1.914,1.914,0,0,1-2.052,0Zm0,0" transform="translate(-24.065 -57.186)"/><path class="f" d="M12.228,229.853l-4.038-23.7-8.076,28Zm0,0" transform="translate(-0.114 -111.271)"/><path class="f" d="M16.934,133.484a6.427,6.427,0,0,0-4.038-6.066v-35.7a6.777,6.777,0,0,1,.545-2.626,6.3,6.3,0,0,1,2.888-3.18L12.48,83.485a10.73,10.73,0,0,0-2.513,3.421,11.244,11.244,0,0,0-1.109,4.811v35.7A6.537,6.537,0,0,0,5,134.959a6.091,6.091,0,0,0,6.586,4.946,6.318,6.318,0,0,0,5.351-6.42Zm0,0" transform="translate(-2.801 -45.06)"/></g></g></g><g transform="translate(3179 -4265.71)"><g class="e" transform="translate(-31 570.71)"><g transform="translate(-1945.475 3981)"><path class="f" d="M8.353,34.571l6.138,3.852a9.74,9.74,0,0,1,5.249-2.458l43.384-5.686a2.051,2.051,0,0,1,2.251,1.875,2.13,2.13,0,0,1-1.759,2.4L20.232,40.243a5.727,5.727,0,0,0-1.878.6l45,28.295,55-34.572L63.35,0Zm0,0" transform="translate(-4.799 0)"/><path class="f" d="M81.591,130.687,42.236,105.951v22.426c0,5.93,4.805,11.7,13.183,15.816a62.806,62.806,0,0,0,27.2,5.725,62.775,62.775,0,0,0,27.2-5.725c8.379-4.121,13.184-9.886,13.184-15.816V105.951L83.643,130.687a1.914,1.914,0,0,1-2.052,0Zm0,0" transform="translate(-24.065 -57.186)"/><path class="f" d="M12.228,229.853l-4.038-23.7-8.076,28Zm0,0" transform="translate(-0.114 -111.271)"/><path class="f" d="M16.934,133.484a6.427,6.427,0,0,0-4.038-6.066v-35.7a6.777,6.777,0,0,1,.545-2.626,6.3,6.3,0,0,1,2.888-3.18L12.48,83.485a10.73,10.73,0,0,0-2.513,3.421,11.244,11.244,0,0,0-1.109,4.811v35.7A6.537,6.537,0,0,0,5,134.959a6.091,6.091,0,0,0,6.586,4.946,6.318,6.318,0,0,0,5.351-6.42Zm0,0" transform="translate(-2.801 -45.06)"/></g></g></g><g transform="translate(3374 -4265.71)"><g class="e" transform="translate(-31 570.71)"><g transform="translate(-1945.475 3981)"><path class="f" d="M8.353,34.571l6.138,3.852a9.74,9.74,0,0,1,5.249-2.458l43.384-5.686a2.051,2.051,0,0,1,2.251,1.875,2.13,2.13,0,0,1-1.759,2.4L20.232,40.243a5.727,5.727,0,0,0-1.878.6l45,28.295,55-34.572L63.35,0Zm0,0" transform="translate(-4.799 0)"/><path class="f" d="M81.591,130.687,42.236,105.951v22.426c0,5.93,4.805,11.7,13.183,15.816a62.806,62.806,0,0,0,27.2,5.725,62.775,62.775,0,0,0,27.2-5.725c8.379-4.121,13.184-9.886,13.184-15.816V105.951L83.643,130.687a1.914,1.914,0,0,1-2.052,0Zm0,0" transform="translate(-24.065 -57.186)"/><path class="f" d="M12.228,229.853l-4.038-23.7-8.076,28Zm0,0" transform="translate(-0.114 -111.271)"/><path class="f" d="M16.934,133.484a6.427,6.427,0,0,0-4.038-6.066v-35.7a6.777,6.777,0,0,1,.545-2.626,6.3,6.3,0,0,1,2.888-3.18L12.48,83.485a10.73,10.73,0,0,0-2.513,3.421,11.244,11.244,0,0,0-1.109,4.811v35.7A6.537,6.537,0,0,0,5,134.959a6.091,6.091,0,0,0,6.586,4.946,6.318,6.318,0,0,0,5.351-6.42Zm0,0" transform="translate(-2.801 -45.06)"/></g></g></g><g transform="translate(3569 -4265.71)"><g class="e" transform="translate(-31 570.71)"><g transform="translate(-1945.475 3981)"><path class="f" d="M8.353,34.571l6.138,3.852a9.74,9.74,0,0,1,5.249-2.458l43.384-5.686a2.051,2.051,0,0,1,2.251,1.875,2.13,2.13,0,0,1-1.759,2.4L20.232,40.243a5.727,5.727,0,0,0-1.878.6l45,28.295,55-34.572L63.35,0Zm0,0" transform="translate(-4.799 0)"/><path class="f" d="M81.591,130.687,42.236,105.951v22.426c0,5.93,4.805,11.7,13.183,15.816a62.806,62.806,0,0,0,27.2,5.725,62.775,62.775,0,0,0,27.2-5.725c8.379-4.121,13.184-9.886,13.184-15.816V105.951L83.643,130.687a1.914,1.914,0,0,1-2.052,0Zm0,0" transform="translate(-24.065 -57.186)"/><path class="f" d="M12.228,229.853l-4.038-23.7-8.076,28Zm0,0" transform="translate(-0.114 -111.271)"/><path class="f" d="M16.934,133.484a6.427,6.427,0,0,0-4.038-6.066v-35.7a6.777,6.777,0,0,1,.545-2.626,6.3,6.3,0,0,1,2.888-3.18L12.48,83.485a10.73,10.73,0,0,0-2.513,3.421,11.244,11.244,0,0,0-1.109,4.811v35.7A6.537,6.537,0,0,0,5,134.959a6.091,6.091,0,0,0,6.586,4.946,6.318,6.318,0,0,0,5.351-6.42Zm0,0" transform="translate(-2.801 -45.06)"/></g></g></g><g transform="translate(3764 -4265.71)"><g class="e" transform="translate(-31 570.71)"><g transform="translate(-1945.475 3981)"><path class="f" d="M8.353,34.571l6.138,3.852a9.74,9.74,0,0,1,5.249-2.458l43.384-5.686a2.051,2.051,0,0,1,2.251,1.875,2.13,2.13,0,0,1-1.759,2.4L20.232,40.243a5.727,5.727,0,0,0-1.878.6l45,28.295,55-34.572L63.35,0Zm0,0" transform="translate(-4.799 0)"/><path class="f" d="M81.591,130.687,42.236,105.951v22.426c0,5.93,4.805,11.7,13.183,15.816a62.806,62.806,0,0,0,27.2,5.725,62.775,62.775,0,0,0,27.2-5.725c8.379-4.121,13.184-9.886,13.184-15.816V105.951L83.643,130.687a1.914,1.914,0,0,1-2.052,0Zm0,0" transform="translate(-24.065 -57.186)"/><path class="f" d="M12.228,229.853l-4.038-23.7-8.076,28Zm0,0" transform="translate(-0.114 -111.271)"/><path class="f" d="M16.934,133.484a6.427,6.427,0,0,0-4.038-6.066v-35.7a6.777,6.777,0,0,1,.545-2.626,6.3,6.3,0,0,1,2.888-3.18L12.48,83.485a10.73,10.73,0,0,0-2.513,3.421,11.244,11.244,0,0,0-1.109,4.811v35.7A6.537,6.537,0,0,0,5,134.959a6.091,6.091,0,0,0,6.586,4.946,6.318,6.318,0,0,0,5.351-6.42Zm0,0" transform="translate(-2.801 -45.06)"/></g></g></g><g transform="translate(3959 -4265.71)"><g class="e" transform="translate(-31 570.71)"><g transform="translate(-1945.475 3981)"><path class="f" d="M8.353,34.571l6.138,3.852a9.74,9.74,0,0,1,5.249-2.458l43.384-5.686a2.051,2.051,0,0,1,2.251,1.875,2.13,2.13,0,0,1-1.759,2.4L20.232,40.243a5.727,5.727,0,0,0-1.878.6l45,28.295,55-34.572L63.35,0Zm0,0" transform="translate(-4.799 0)"/><path class="f" d="M81.591,130.687,42.236,105.951v22.426c0,5.93,4.805,11.7,13.183,15.816a62.806,62.806,0,0,0,27.2,5.725,62.775,62.775,0,0,0,27.2-5.725c8.379-4.121,13.184-9.886,13.184-15.816V105.951L83.643,130.687a1.914,1.914,0,0,1-2.052,0Zm0,0" transform="translate(-24.065 -57.186)"/><path class="f" d="M12.228,229.853l-4.038-23.7-8.076,28Zm0,0" transform="translate(-0.114 -111.271)"/><path class="f" d="M16.934,133.484a6.427,6.427,0,0,0-4.038-6.066v-35.7a6.777,6.777,0,0,1,.545-2.626,6.3,6.3,0,0,1,2.888-3.18L12.48,83.485a10.73,10.73,0,0,0-2.513,3.421,11.244,11.244,0,0,0-1.109,4.811v35.7A6.537,6.537,0,0,0,5,134.959a6.091,6.091,0,0,0,6.586,4.946,6.318,6.318,0,0,0,5.351-6.42Zm0,0" transform="translate(-2.801 -45.06)"/></g></g></g><g transform="translate(2009 -4122.71)"><g class="e" transform="translate(-31 570.71)"><g transform="translate(-1945.475 3981)"><path class="f" d="M8.353,34.571l6.138,3.852a9.74,9.74,0,0,1,5.249-2.458l43.384-5.686a2.051,2.051,0,0,1,2.251,1.875,2.13,2.13,0,0,1-1.759,2.4L20.232,40.243a5.727,5.727,0,0,0-1.878.6l45,28.295,55-34.572L63.35,0Zm0,0" transform="translate(-4.799 0)"/><path class="f" d="M81.591,130.687,42.236,105.951v22.426c0,5.93,4.805,11.7,13.183,15.816a62.806,62.806,0,0,0,27.2,5.725,62.775,62.775,0,0,0,27.2-5.725c8.379-4.121,13.184-9.886,13.184-15.816V105.951L83.643,130.687a1.914,1.914,0,0,1-2.052,0Zm0,0" transform="translate(-24.065 -57.186)"/><path class="f" d="M12.228,229.853l-4.038-23.7-8.076,28Zm0,0" transform="translate(-0.114 -111.271)"/><path class="f" d="M16.934,133.484a6.427,6.427,0,0,0-4.038-6.066v-35.7a6.777,6.777,0,0,1,.545-2.626,6.3,6.3,0,0,1,2.888-3.18L12.48,83.485a10.73,10.73,0,0,0-2.513,3.421,11.244,11.244,0,0,0-1.109,4.811v35.7A6.537,6.537,0,0,0,5,134.959a6.091,6.091,0,0,0,6.586,4.946,6.318,6.318,0,0,0,5.351-6.42Zm0,0" transform="translate(-2.801 -45.06)"/></g></g></g><g transform="translate(2204 -4122.71)"><g class="e" transform="translate(-31 570.71)"><g transform="translate(-1945.475 3981)"><path class="f" d="M8.353,34.571l6.138,3.852a9.74,9.74,0,0,1,5.249-2.458l43.384-5.686a2.051,2.051,0,0,1,2.251,1.875,2.13,2.13,0,0,1-1.759,2.4L20.232,40.243a5.727,5.727,0,0,0-1.878.6l45,28.295,55-34.572L63.35,0Zm0,0" transform="translate(-4.799 0)"/><path class="f" d="M81.591,130.687,42.236,105.951v22.426c0,5.93,4.805,11.7,13.183,15.816a62.806,62.806,0,0,0,27.2,5.725,62.775,62.775,0,0,0,27.2-5.725c8.379-4.121,13.184-9.886,13.184-15.816V105.951L83.643,130.687a1.914,1.914,0,0,1-2.052,0Zm0,0" transform="translate(-24.065 -57.186)"/><path class="f" d="M12.228,229.853l-4.038-23.7-8.076,28Zm0,0" transform="translate(-0.114 -111.271)"/><path class="f" d="M16.934,133.484a6.427,6.427,0,0,0-4.038-6.066v-35.7a6.777,6.777,0,0,1,.545-2.626,6.3,6.3,0,0,1,2.888-3.18L12.48,83.485a10.73,10.73,0,0,0-2.513,3.421,11.244,11.244,0,0,0-1.109,4.811v35.7A6.537,6.537,0,0,0,5,134.959a6.091,6.091,0,0,0,6.586,4.946,6.318,6.318,0,0,0,5.351-6.42Zm0,0" transform="translate(-2.801 -45.06)"/></g></g></g><g transform="translate(2399 -4122.71)"><g class="e" transform="translate(-31 570.71)"><g transform="translate(-1945.475 3981)"><path class="f" d="M8.353,34.571l6.138,3.852a9.74,9.74,0,0,1,5.249-2.458l43.384-5.686a2.051,2.051,0,0,1,2.251,1.875,2.13,2.13,0,0,1-1.759,2.4L20.232,40.243a5.727,5.727,0,0,0-1.878.6l45,28.295,55-34.572L63.35,0Zm0,0" transform="translate(-4.799 0)"/><path class="f" d="M81.591,130.687,42.236,105.951v22.426c0,5.93,4.805,11.7,13.183,15.816a62.806,62.806,0,0,0,27.2,5.725,62.775,62.775,0,0,0,27.2-5.725c8.379-4.121,13.184-9.886,13.184-15.816V105.951L83.643,130.687a1.914,1.914,0,0,1-2.052,0Zm0,0" transform="translate(-24.065 -57.186)"/><path class="f" d="M12.228,229.853l-4.038-23.7-8.076,28Zm0,0" transform="translate(-0.114 -111.271)"/><path class="f" d="M16.934,133.484a6.427,6.427,0,0,0-4.038-6.066v-35.7a6.777,6.777,0,0,1,.545-2.626,6.3,6.3,0,0,1,2.888-3.18L12.48,83.485a10.73,10.73,0,0,0-2.513,3.421,11.244,11.244,0,0,0-1.109,4.811v35.7A6.537,6.537,0,0,0,5,134.959a6.091,6.091,0,0,0,6.586,4.946,6.318,6.318,0,0,0,5.351-6.42Zm0,0" transform="translate(-2.801 -45.06)"/></g></g></g><g transform="translate(2594 -4122.71)"><g class="e" transform="translate(-31 570.71)"><g transform="translate(-1945.475 3981)"><path class="f" d="M8.353,34.571l6.138,3.852a9.74,9.74,0,0,1,5.249-2.458l43.384-5.686a2.051,2.051,0,0,1,2.251,1.875,2.13,2.13,0,0,1-1.759,2.4L20.232,40.243a5.727,5.727,0,0,0-1.878.6l45,28.295,55-34.572L63.35,0Zm0,0" transform="translate(-4.799 0)"/><path class="f" d="M81.591,130.687,42.236,105.951v22.426c0,5.93,4.805,11.7,13.183,15.816a62.806,62.806,0,0,0,27.2,5.725,62.775,62.775,0,0,0,27.2-5.725c8.379-4.121,13.184-9.886,13.184-15.816V105.951L83.643,130.687a1.914,1.914,0,0,1-2.052,0Zm0,0" transform="translate(-24.065 -57.186)"/><path class="f" d="M12.228,229.853l-4.038-23.7-8.076,28Zm0,0" transform="translate(-0.114 -111.271)"/><path class="f" d="M16.934,133.484a6.427,6.427,0,0,0-4.038-6.066v-35.7a6.777,6.777,0,0,1,.545-2.626,6.3,6.3,0,0,1,2.888-3.18L12.48,83.485a10.73,10.73,0,0,0-2.513,3.421,11.244,11.244,0,0,0-1.109,4.811v35.7A6.537,6.537,0,0,0,5,134.959a6.091,6.091,0,0,0,6.586,4.946,6.318,6.318,0,0,0,5.351-6.42Zm0,0" transform="translate(-2.801 -45.06)"/></g></g></g><g transform="translate(2789 -4122.71)"><g class="e" transform="translate(-31 570.71)"><g transform="translate(-1945.475 3981)"><path class="f" d="M8.353,34.571l6.138,3.852a9.74,9.74,0,0,1,5.249-2.458l43.384-5.686a2.051,2.051,0,0,1,2.251,1.875,2.13,2.13,0,0,1-1.759,2.4L20.232,40.243a5.727,5.727,0,0,0-1.878.6l45,28.295,55-34.572L63.35,0Zm0,0" transform="translate(-4.799 0)"/><path class="f" d="M81.591,130.687,42.236,105.951v22.426c0,5.93,4.805,11.7,13.183,15.816a62.806,62.806,0,0,0,27.2,5.725,62.775,62.775,0,0,0,27.2-5.725c8.379-4.121,13.184-9.886,13.184-15.816V105.951L83.643,130.687a1.914,1.914,0,0,1-2.052,0Zm0,0" transform="translate(-24.065 -57.186)"/><path class="f" d="M12.228,229.853l-4.038-23.7-8.076,28Zm0,0" transform="translate(-0.114 -111.271)"/><path class="f" d="M16.934,133.484a6.427,6.427,0,0,0-4.038-6.066v-35.7a6.777,6.777,0,0,1,.545-2.626,6.3,6.3,0,0,1,2.888-3.18L12.48,83.485a10.73,10.73,0,0,0-2.513,3.421,11.244,11.244,0,0,0-1.109,4.811v35.7A6.537,6.537,0,0,0,5,134.959a6.091,6.091,0,0,0,6.586,4.946,6.318,6.318,0,0,0,5.351-6.42Zm0,0" transform="translate(-2.801 -45.06)"/></g></g></g><g transform="translate(2984 -4122.71)"><g class="e" transform="translate(-31 570.71)"><g transform="translate(-1945.475 3981)"><path class="f" d="M8.353,34.571l6.138,3.852a9.74,9.74,0,0,1,5.249-2.458l43.384-5.686a2.051,2.051,0,0,1,2.251,1.875,2.13,2.13,0,0,1-1.759,2.4L20.232,40.243a5.727,5.727,0,0,0-1.878.6l45,28.295,55-34.572L63.35,0Zm0,0" transform="translate(-4.799 0)"/><path class="f" d="M81.591,130.687,42.236,105.951v22.426c0,5.93,4.805,11.7,13.183,15.816a62.806,62.806,0,0,0,27.2,5.725,62.775,62.775,0,0,0,27.2-5.725c8.379-4.121,13.184-9.886,13.184-15.816V105.951L83.643,130.687a1.914,1.914,0,0,1-2.052,0Zm0,0" transform="translate(-24.065 -57.186)"/><path class="f" d="M12.228,229.853l-4.038-23.7-8.076,28Zm0,0" transform="translate(-0.114 -111.271)"/><path class="f" d="M16.934,133.484a6.427,6.427,0,0,0-4.038-6.066v-35.7a6.777,6.777,0,0,1,.545-2.626,6.3,6.3,0,0,1,2.888-3.18L12.48,83.485a10.73,10.73,0,0,0-2.513,3.421,11.244,11.244,0,0,0-1.109,4.811v35.7A6.537,6.537,0,0,0,5,134.959a6.091,6.091,0,0,0,6.586,4.946,6.318,6.318,0,0,0,5.351-6.42Zm0,0" transform="translate(-2.801 -45.06)"/></g></g></g><g transform="translate(3179 -4122.71)"><g class="e" transform="translate(-31 570.71)"><g transform="translate(-1945.475 3981)"><path class="f" d="M8.353,34.571l6.138,3.852a9.74,9.74,0,0,1,5.249-2.458l43.384-5.686a2.051,2.051,0,0,1,2.251,1.875,2.13,2.13,0,0,1-1.759,2.4L20.232,40.243a5.727,5.727,0,0,0-1.878.6l45,28.295,55-34.572L63.35,0Zm0,0" transform="translate(-4.799 0)"/><path class="f" d="M81.591,130.687,42.236,105.951v22.426c0,5.93,4.805,11.7,13.183,15.816a62.806,62.806,0,0,0,27.2,5.725,62.775,62.775,0,0,0,27.2-5.725c8.379-4.121,13.184-9.886,13.184-15.816V105.951L83.643,130.687a1.914,1.914,0,0,1-2.052,0Zm0,0" transform="translate(-24.065 -57.186)"/><path class="f" d="M12.228,229.853l-4.038-23.7-8.076,28Zm0,0" transform="translate(-0.114 -111.271)"/><path class="f" d="M16.934,133.484a6.427,6.427,0,0,0-4.038-6.066v-35.7a6.777,6.777,0,0,1,.545-2.626,6.3,6.3,0,0,1,2.888-3.18L12.48,83.485a10.73,10.73,0,0,0-2.513,3.421,11.244,11.244,0,0,0-1.109,4.811v35.7A6.537,6.537,0,0,0,5,134.959a6.091,6.091,0,0,0,6.586,4.946,6.318,6.318,0,0,0,5.351-6.42Zm0,0" transform="translate(-2.801 -45.06)"/></g></g></g><g transform="translate(3374 -4122.71)"><g class="e" transform="translate(-31 570.71)"><g transform="translate(-1945.475 3981)"><path class="f" d="M8.353,34.571l6.138,3.852a9.74,9.74,0,0,1,5.249-2.458l43.384-5.686a2.051,2.051,0,0,1,2.251,1.875,2.13,2.13,0,0,1-1.759,2.4L20.232,40.243a5.727,5.727,0,0,0-1.878.6l45,28.295,55-34.572L63.35,0Zm0,0" transform="translate(-4.799 0)"/><path class="f" d="M81.591,130.687,42.236,105.951v22.426c0,5.93,4.805,11.7,13.183,15.816a62.806,62.806,0,0,0,27.2,5.725,62.775,62.775,0,0,0,27.2-5.725c8.379-4.121,13.184-9.886,13.184-15.816V105.951L83.643,130.687a1.914,1.914,0,0,1-2.052,0Zm0,0" transform="translate(-24.065 -57.186)"/><path class="f" d="M12.228,229.853l-4.038-23.7-8.076,28Zm0,0" transform="translate(-0.114 -111.271)"/><path class="f" d="M16.934,133.484a6.427,6.427,0,0,0-4.038-6.066v-35.7a6.777,6.777,0,0,1,.545-2.626,6.3,6.3,0,0,1,2.888-3.18L12.48,83.485a10.73,10.73,0,0,0-2.513,3.421,11.244,11.244,0,0,0-1.109,4.811v35.7A6.537,6.537,0,0,0,5,134.959a6.091,6.091,0,0,0,6.586,4.946,6.318,6.318,0,0,0,5.351-6.42Zm0,0" transform="translate(-2.801 -45.06)"/></g></g></g><g transform="translate(3569 -4122.71)"><g class="e" transform="translate(-31 570.71)"><g transform="translate(-1945.475 3981)"><path class="f" d="M8.353,34.571l6.138,3.852a9.74,9.74,0,0,1,5.249-2.458l43.384-5.686a2.051,2.051,0,0,1,2.251,1.875,2.13,2.13,0,0,1-1.759,2.4L20.232,40.243a5.727,5.727,0,0,0-1.878.6l45,28.295,55-34.572L63.35,0Zm0,0" transform="translate(-4.799 0)"/><path class="f" d="M81.591,130.687,42.236,105.951v22.426c0,5.93,4.805,11.7,13.183,15.816a62.806,62.806,0,0,0,27.2,5.725,62.775,62.775,0,0,0,27.2-5.725c8.379-4.121,13.184-9.886,13.184-15.816V105.951L83.643,130.687a1.914,1.914,0,0,1-2.052,0Zm0,0" transform="translate(-24.065 -57.186)"/><path class="f" d="M12.228,229.853l-4.038-23.7-8.076,28Zm0,0" transform="translate(-0.114 -111.271)"/><path class="f" d="M16.934,133.484a6.427,6.427,0,0,0-4.038-6.066v-35.7a6.777,6.777,0,0,1,.545-2.626,6.3,6.3,0,0,1,2.888-3.18L12.48,83.485a10.73,10.73,0,0,0-2.513,3.421,11.244,11.244,0,0,0-1.109,4.811v35.7A6.537,6.537,0,0,0,5,134.959a6.091,6.091,0,0,0,6.586,4.946,6.318,6.318,0,0,0,5.351-6.42Zm0,0" transform="translate(-2.801 -45.06)"/></g></g></g><g transform="translate(3764 -4122.71)"><g class="e" transform="translate(-31 570.71)"><g transform="translate(-1945.475 3981)"><path class="f" d="M8.353,34.571l6.138,3.852a9.74,9.74,0,0,1,5.249-2.458l43.384-5.686a2.051,2.051,0,0,1,2.251,1.875,2.13,2.13,0,0,1-1.759,2.4L20.232,40.243a5.727,5.727,0,0,0-1.878.6l45,28.295,55-34.572L63.35,0Zm0,0" transform="translate(-4.799 0)"/><path class="f" d="M81.591,130.687,42.236,105.951v22.426c0,5.93,4.805,11.7,13.183,15.816a62.806,62.806,0,0,0,27.2,5.725,62.775,62.775,0,0,0,27.2-5.725c8.379-4.121,13.184-9.886,13.184-15.816V105.951L83.643,130.687a1.914,1.914,0,0,1-2.052,0Zm0,0" transform="translate(-24.065 -57.186)"/><path class="f" d="M12.228,229.853l-4.038-23.7-8.076,28Zm0,0" transform="translate(-0.114 -111.271)"/><path class="f" d="M16.934,133.484a6.427,6.427,0,0,0-4.038-6.066v-35.7a6.777,6.777,0,0,1,.545-2.626,6.3,6.3,0,0,1,2.888-3.18L12.48,83.485a10.73,10.73,0,0,0-2.513,3.421,11.244,11.244,0,0,0-1.109,4.811v35.7A6.537,6.537,0,0,0,5,134.959a6.091,6.091,0,0,0,6.586,4.946,6.318,6.318,0,0,0,5.351-6.42Zm0,0" transform="translate(-2.801 -45.06)"/></g></g></g><g transform="translate(3959 -4122.71)"><g class="e" transform="translate(-31 570.71)"><g transform="translate(-1945.475 3981)"><path class="f" d="M8.353,34.571l6.138,3.852a9.74,9.74,0,0,1,5.249-2.458l43.384-5.686a2.051,2.051,0,0,1,2.251,1.875,2.13,2.13,0,0,1-1.759,2.4L20.232,40.243a5.727,5.727,0,0,0-1.878.6l45,28.295,55-34.572L63.35,0Zm0,0" transform="translate(-4.799 0)"/><path class="f" d="M81.591,130.687,42.236,105.951v22.426c0,5.93,4.805,11.7,13.183,15.816a62.806,62.806,0,0,0,27.2,5.725,62.775,62.775,0,0,0,27.2-5.725c8.379-4.121,13.184-9.886,13.184-15.816V105.951L83.643,130.687a1.914,1.914,0,0,1-2.052,0Zm0,0" transform="translate(-24.065 -57.186)"/><path class="f" d="M12.228,229.853l-4.038-23.7-8.076,28Zm0,0" transform="translate(-0.114 -111.271)"/><path class="f" d="M16.934,133.484a6.427,6.427,0,0,0-4.038-6.066v-35.7a6.777,6.777,0,0,1,.545-2.626,6.3,6.3,0,0,1,2.888-3.18L12.48,83.485a10.73,10.73,0,0,0-2.513,3.421,11.244,11.244,0,0,0-1.109,4.811v35.7A6.537,6.537,0,0,0,5,134.959a6.091,6.091,0,0,0,6.586,4.946,6.318,6.318,0,0,0,5.351-6.42Zm0,0" transform="translate(-2.801 -45.06)"/></g></g></g><g transform="translate(2009 -3979.71)"><g class="e" transform="translate(-31 570.71)"><g transform="translate(-1945.475 3981)"><path class="f" d="M8.353,34.571l6.138,3.852a9.74,9.74,0,0,1,5.249-2.458l43.384-5.686a2.051,2.051,0,0,1,2.251,1.875,2.13,2.13,0,0,1-1.759,2.4L20.232,40.243a5.727,5.727,0,0,0-1.878.6l45,28.295,55-34.572L63.35,0Zm0,0" transform="translate(-4.799 0)"/><path class="f" d="M81.591,130.687,42.236,105.951v22.426c0,5.93,4.805,11.7,13.183,15.816a62.806,62.806,0,0,0,27.2,5.725,62.775,62.775,0,0,0,27.2-5.725c8.379-4.121,13.184-9.886,13.184-15.816V105.951L83.643,130.687a1.914,1.914,0,0,1-2.052,0Zm0,0" transform="translate(-24.065 -57.186)"/><path class="f" d="M12.228,229.853l-4.038-23.7-8.076,28Zm0,0" transform="translate(-0.114 -111.271)"/><path class="f" d="M16.934,133.484a6.427,6.427,0,0,0-4.038-6.066v-35.7a6.777,6.777,0,0,1,.545-2.626,6.3,6.3,0,0,1,2.888-3.18L12.48,83.485a10.73,10.73,0,0,0-2.513,3.421,11.244,11.244,0,0,0-1.109,4.811v35.7A6.537,6.537,0,0,0,5,134.959a6.091,6.091,0,0,0,6.586,4.946,6.318,6.318,0,0,0,5.351-6.42Zm0,0" transform="translate(-2.801 -45.06)"/></g></g></g><g transform="translate(2204 -3979.71)"><g class="e" transform="translate(-31 570.71)"><g transform="translate(-1945.475 3981)"><path class="f" d="M8.353,34.571l6.138,3.852a9.74,9.74,0,0,1,5.249-2.458l43.384-5.686a2.051,2.051,0,0,1,2.251,1.875,2.13,2.13,0,0,1-1.759,2.4L20.232,40.243a5.727,5.727,0,0,0-1.878.6l45,28.295,55-34.572L63.35,0Zm0,0" transform="translate(-4.799 0)"/><path class="f" d="M81.591,130.687,42.236,105.951v22.426c0,5.93,4.805,11.7,13.183,15.816a62.806,62.806,0,0,0,27.2,5.725,62.775,62.775,0,0,0,27.2-5.725c8.379-4.121,13.184-9.886,13.184-15.816V105.951L83.643,130.687a1.914,1.914,0,0,1-2.052,0Zm0,0" transform="translate(-24.065 -57.186)"/><path class="f" d="M12.228,229.853l-4.038-23.7-8.076,28Zm0,0" transform="translate(-0.114 -111.271)"/><path class="f" d="M16.934,133.484a6.427,6.427,0,0,0-4.038-6.066v-35.7a6.777,6.777,0,0,1,.545-2.626,6.3,6.3,0,0,1,2.888-3.18L12.48,83.485a10.73,10.73,0,0,0-2.513,3.421,11.244,11.244,0,0,0-1.109,4.811v35.7A6.537,6.537,0,0,0,5,134.959a6.091,6.091,0,0,0,6.586,4.946,6.318,6.318,0,0,0,5.351-6.42Zm0,0" transform="translate(-2.801 -45.06)"/></g></g></g><g transform="translate(2399 -3979.71)"><g class="e" transform="translate(-31 570.71)"><g transform="translate(-1945.475 3981)"><path class="f" d="M8.353,34.571l6.138,3.852a9.74,9.74,0,0,1,5.249-2.458l43.384-5.686a2.051,2.051,0,0,1,2.251,1.875,2.13,2.13,0,0,1-1.759,2.4L20.232,40.243a5.727,5.727,0,0,0-1.878.6l45,28.295,55-34.572L63.35,0Zm0,0" transform="translate(-4.799 0)"/><path class="f" d="M81.591,130.687,42.236,105.951v22.426c0,5.93,4.805,11.7,13.183,15.816a62.806,62.806,0,0,0,27.2,5.725,62.775,62.775,0,0,0,27.2-5.725c8.379-4.121,13.184-9.886,13.184-15.816V105.951L83.643,130.687a1.914,1.914,0,0,1-2.052,0Zm0,0" transform="translate(-24.065 -57.186)"/><path class="f" d="M12.228,229.853l-4.038-23.7-8.076,28Zm0,0" transform="translate(-0.114 -111.271)"/><path class="f" d="M16.934,133.484a6.427,6.427,0,0,0-4.038-6.066v-35.7a6.777,6.777,0,0,1,.545-2.626,6.3,6.3,0,0,1,2.888-3.18L12.48,83.485a10.73,10.73,0,0,0-2.513,3.421,11.244,11.244,0,0,0-1.109,4.811v35.7A6.537,6.537,0,0,0,5,134.959a6.091,6.091,0,0,0,6.586,4.946,6.318,6.318,0,0,0,5.351-6.42Zm0,0" transform="translate(-2.801 -45.06)"/></g></g></g><g transform="translate(2594 -3979.71)"><g class="e" transform="translate(-31 570.71)"><g transform="translate(-1945.475 3981)"><path class="f" d="M8.353,34.571l6.138,3.852a9.74,9.74,0,0,1,5.249-2.458l43.384-5.686a2.051,2.051,0,0,1,2.251,1.875,2.13,2.13,0,0,1-1.759,2.4L20.232,40.243a5.727,5.727,0,0,0-1.878.6l45,28.295,55-34.572L63.35,0Zm0,0" transform="translate(-4.799 0)"/><path class="f" d="M81.591,130.687,42.236,105.951v22.426c0,5.93,4.805,11.7,13.183,15.816a62.806,62.806,0,0,0,27.2,5.725,62.775,62.775,0,0,0,27.2-5.725c8.379-4.121,13.184-9.886,13.184-15.816V105.951L83.643,130.687a1.914,1.914,0,0,1-2.052,0Zm0,0" transform="translate(-24.065 -57.186)"/><path class="f" d="M12.228,229.853l-4.038-23.7-8.076,28Zm0,0" transform="translate(-0.114 -111.271)"/><path class="f" d="M16.934,133.484a6.427,6.427,0,0,0-4.038-6.066v-35.7a6.777,6.777,0,0,1,.545-2.626,6.3,6.3,0,0,1,2.888-3.18L12.48,83.485a10.73,10.73,0,0,0-2.513,3.421,11.244,11.244,0,0,0-1.109,4.811v35.7A6.537,6.537,0,0,0,5,134.959a6.091,6.091,0,0,0,6.586,4.946,6.318,6.318,0,0,0,5.351-6.42Zm0,0" transform="translate(-2.801 -45.06)"/></g></g></g><g transform="translate(2789 -3979.71)"><g class="e" transform="translate(-31 570.71)"><g transform="translate(-1945.475 3981)"><path class="f" d="M8.353,34.571l6.138,3.852a9.74,9.74,0,0,1,5.249-2.458l43.384-5.686a2.051,2.051,0,0,1,2.251,1.875,2.13,2.13,0,0,1-1.759,2.4L20.232,40.243a5.727,5.727,0,0,0-1.878.6l45,28.295,55-34.572L63.35,0Zm0,0" transform="translate(-4.799 0)"/><path class="f" d="M81.591,130.687,42.236,105.951v22.426c0,5.93,4.805,11.7,13.183,15.816a62.806,62.806,0,0,0,27.2,5.725,62.775,62.775,0,0,0,27.2-5.725c8.379-4.121,13.184-9.886,13.184-15.816V105.951L83.643,130.687a1.914,1.914,0,0,1-2.052,0Zm0,0" transform="translate(-24.065 -57.186)"/><path class="f" d="M12.228,229.853l-4.038-23.7-8.076,28Zm0,0" transform="translate(-0.114 -111.271)"/><path class="f" d="M16.934,133.484a6.427,6.427,0,0,0-4.038-6.066v-35.7a6.777,6.777,0,0,1,.545-2.626,6.3,6.3,0,0,1,2.888-3.18L12.48,83.485a10.73,10.73,0,0,0-2.513,3.421,11.244,11.244,0,0,0-1.109,4.811v35.7A6.537,6.537,0,0,0,5,134.959a6.091,6.091,0,0,0,6.586,4.946,6.318,6.318,0,0,0,5.351-6.42Zm0,0" transform="translate(-2.801 -45.06)"/></g></g></g><g transform="translate(2984 -3979.71)"><g class="e" transform="translate(-31 570.71)"><g transform="translate(-1945.475 3981)"><path class="f" d="M8.353,34.571l6.138,3.852a9.74,9.74,0,0,1,5.249-2.458l43.384-5.686a2.051,2.051,0,0,1,2.251,1.875,2.13,2.13,0,0,1-1.759,2.4L20.232,40.243a5.727,5.727,0,0,0-1.878.6l45,28.295,55-34.572L63.35,0Zm0,0" transform="translate(-4.799 0)"/><path class="f" d="M81.591,130.687,42.236,105.951v22.426c0,5.93,4.805,11.7,13.183,15.816a62.806,62.806,0,0,0,27.2,5.725,62.775,62.775,0,0,0,27.2-5.725c8.379-4.121,13.184-9.886,13.184-15.816V105.951L83.643,130.687a1.914,1.914,0,0,1-2.052,0Zm0,0" transform="translate(-24.065 -57.186)"/><path class="f" d="M12.228,229.853l-4.038-23.7-8.076,28Zm0,0" transform="translate(-0.114 -111.271)"/><path class="f" d="M16.934,133.484a6.427,6.427,0,0,0-4.038-6.066v-35.7a6.777,6.777,0,0,1,.545-2.626,6.3,6.3,0,0,1,2.888-3.18L12.48,83.485a10.73,10.73,0,0,0-2.513,3.421,11.244,11.244,0,0,0-1.109,4.811v35.7A6.537,6.537,0,0,0,5,134.959a6.091,6.091,0,0,0,6.586,4.946,6.318,6.318,0,0,0,5.351-6.42Zm0,0" transform="translate(-2.801 -45.06)"/></g></g></g><g transform="translate(3179 -3979.71)"><g class="e" transform="translate(-31 570.71)"><g transform="translate(-1945.475 3981)"><path class="f" d="M8.353,34.571l6.138,3.852a9.74,9.74,0,0,1,5.249-2.458l43.384-5.686a2.051,2.051,0,0,1,2.251,1.875,2.13,2.13,0,0,1-1.759,2.4L20.232,40.243a5.727,5.727,0,0,0-1.878.6l45,28.295,55-34.572L63.35,0Zm0,0" transform="translate(-4.799 0)"/><path class="f" d="M81.591,130.687,42.236,105.951v22.426c0,5.93,4.805,11.7,13.183,15.816a62.806,62.806,0,0,0,27.2,5.725,62.775,62.775,0,0,0,27.2-5.725c8.379-4.121,13.184-9.886,13.184-15.816V105.951L83.643,130.687a1.914,1.914,0,0,1-2.052,0Zm0,0" transform="translate(-24.065 -57.186)"/><path class="f" d="M12.228,229.853l-4.038-23.7-8.076,28Zm0,0" transform="translate(-0.114 -111.271)"/><path class="f" d="M16.934,133.484a6.427,6.427,0,0,0-4.038-6.066v-35.7a6.777,6.777,0,0,1,.545-2.626,6.3,6.3,0,0,1,2.888-3.18L12.48,83.485a10.73,10.73,0,0,0-2.513,3.421,11.244,11.244,0,0,0-1.109,4.811v35.7A6.537,6.537,0,0,0,5,134.959a6.091,6.091,0,0,0,6.586,4.946,6.318,6.318,0,0,0,5.351-6.42Zm0,0" transform="translate(-2.801 -45.06)"/></g></g></g><g transform="translate(3374 -3979.71)"><g class="e" transform="translate(-31 570.71)"><g transform="translate(-1945.475 3981)"><path class="f" d="M8.353,34.571l6.138,3.852a9.74,9.74,0,0,1,5.249-2.458l43.384-5.686a2.051,2.051,0,0,1,2.251,1.875,2.13,2.13,0,0,1-1.759,2.4L20.232,40.243a5.727,5.727,0,0,0-1.878.6l45,28.295,55-34.572L63.35,0Zm0,0" transform="translate(-4.799 0)"/><path class="f" d="M81.591,130.687,42.236,105.951v22.426c0,5.93,4.805,11.7,13.183,15.816a62.806,62.806,0,0,0,27.2,5.725,62.775,62.775,0,0,0,27.2-5.725c8.379-4.121,13.184-9.886,13.184-15.816V105.951L83.643,130.687a1.914,1.914,0,0,1-2.052,0Zm0,0" transform="translate(-24.065 -57.186)"/><path class="f" d="M12.228,229.853l-4.038-23.7-8.076,28Zm0,0" transform="translate(-0.114 -111.271)"/><path class="f" d="M16.934,133.484a6.427,6.427,0,0,0-4.038-6.066v-35.7a6.777,6.777,0,0,1,.545-2.626,6.3,6.3,0,0,1,2.888-3.18L12.48,83.485a10.73,10.73,0,0,0-2.513,3.421,11.244,11.244,0,0,0-1.109,4.811v35.7A6.537,6.537,0,0,0,5,134.959a6.091,6.091,0,0,0,6.586,4.946,6.318,6.318,0,0,0,5.351-6.42Zm0,0" transform="translate(-2.801 -45.06)"/></g></g></g><g transform="translate(3569 -3979.71)"><g class="e" transform="translate(-31 570.71)"><g transform="translate(-1945.475 3981)"><path class="f" d="M8.353,34.571l6.138,3.852a9.74,9.74,0,0,1,5.249-2.458l43.384-5.686a2.051,2.051,0,0,1,2.251,1.875,2.13,2.13,0,0,1-1.759,2.4L20.232,40.243a5.727,5.727,0,0,0-1.878.6l45,28.295,55-34.572L63.35,0Zm0,0" transform="translate(-4.799 0)"/><path class="f" d="M81.591,130.687,42.236,105.951v22.426c0,5.93,4.805,11.7,13.183,15.816a62.806,62.806,0,0,0,27.2,5.725,62.775,62.775,0,0,0,27.2-5.725c8.379-4.121,13.184-9.886,13.184-15.816V105.951L83.643,130.687a1.914,1.914,0,0,1-2.052,0Zm0,0" transform="translate(-24.065 -57.186)"/><path class="f" d="M12.228,229.853l-4.038-23.7-8.076,28Zm0,0" transform="translate(-0.114 -111.271)"/><path class="f" d="M16.934,133.484a6.427,6.427,0,0,0-4.038-6.066v-35.7a6.777,6.777,0,0,1,.545-2.626,6.3,6.3,0,0,1,2.888-3.18L12.48,83.485a10.73,10.73,0,0,0-2.513,3.421,11.244,11.244,0,0,0-1.109,4.811v35.7A6.537,6.537,0,0,0,5,134.959a6.091,6.091,0,0,0,6.586,4.946,6.318,6.318,0,0,0,5.351-6.42Zm0,0" transform="translate(-2.801 -45.06)"/></g></g></g><g transform="translate(3764 -3979.71)"><g class="e" transform="translate(-31 570.71)"><g transform="translate(-1945.475 3981)"><path class="f" d="M8.353,34.571l6.138,3.852a9.74,9.74,0,0,1,5.249-2.458l43.384-5.686a2.051,2.051,0,0,1,2.251,1.875,2.13,2.13,0,0,1-1.759,2.4L20.232,40.243a5.727,5.727,0,0,0-1.878.6l45,28.295,55-34.572L63.35,0Zm0,0" transform="translate(-4.799 0)"/><path class="f" d="M81.591,130.687,42.236,105.951v22.426c0,5.93,4.805,11.7,13.183,15.816a62.806,62.806,0,0,0,27.2,5.725,62.775,62.775,0,0,0,27.2-5.725c8.379-4.121,13.184-9.886,13.184-15.816V105.951L83.643,130.687a1.914,1.914,0,0,1-2.052,0Zm0,0" transform="translate(-24.065 -57.186)"/><path class="f" d="M12.228,229.853l-4.038-23.7-8.076,28Zm0,0" transform="translate(-0.114 -111.271)"/><path class="f" d="M16.934,133.484a6.427,6.427,0,0,0-4.038-6.066v-35.7a6.777,6.777,0,0,1,.545-2.626,6.3,6.3,0,0,1,2.888-3.18L12.48,83.485a10.73,10.73,0,0,0-2.513,3.421,11.244,11.244,0,0,0-1.109,4.811v35.7A6.537,6.537,0,0,0,5,134.959a6.091,6.091,0,0,0,6.586,4.946,6.318,6.318,0,0,0,5.351-6.42Zm0,0" transform="translate(-2.801 -45.06)"/></g></g></g><g transform="translate(3959 -3979.71)"><g class="e" transform="translate(-31 570.71)"><g transform="translate(-1945.475 3981)"><path class="f" d="M8.353,34.571l6.138,3.852a9.74,9.74,0,0,1,5.249-2.458l43.384-5.686a2.051,2.051,0,0,1,2.251,1.875,2.13,2.13,0,0,1-1.759,2.4L20.232,40.243a5.727,5.727,0,0,0-1.878.6l45,28.295,55-34.572L63.35,0Zm0,0" transform="translate(-4.799 0)"/><path class="f" d="M81.591,130.687,42.236,105.951v22.426c0,5.93,4.805,11.7,13.183,15.816a62.806,62.806,0,0,0,27.2,5.725,62.775,62.775,0,0,0,27.2-5.725c8.379-4.121,13.184-9.886,13.184-15.816V105.951L83.643,130.687a1.914,1.914,0,0,1-2.052,0Zm0,0" transform="translate(-24.065 -57.186)"/><path class="f" d="M12.228,229.853l-4.038-23.7-8.076,28Zm0,0" transform="translate(-0.114 -111.271)"/><path class="f" d="M16.934,133.484a6.427,6.427,0,0,0-4.038-6.066v-35.7a6.777,6.777,0,0,1,.545-2.626,6.3,6.3,0,0,1,2.888-3.18L12.48,83.485a10.73,10.73,0,0,0-2.513,3.421,11.244,11.244,0,0,0-1.109,4.811v35.7A6.537,6.537,0,0,0,5,134.959a6.091,6.091,0,0,0,6.586,4.946,6.318,6.318,0,0,0,5.351-6.42Zm0,0" transform="translate(-2.801 -45.06)"/></g></g></g><g transform="translate(2009 -3836.71)"><g class="e" transform="translate(-31 570.71)"><g transform="translate(-1945.475 3981)"><path class="f" d="M8.353,34.571l6.138,3.852a9.74,9.74,0,0,1,5.249-2.458l43.384-5.686a2.051,2.051,0,0,1,2.251,1.875,2.13,2.13,0,0,1-1.759,2.4L20.232,40.243a5.727,5.727,0,0,0-1.878.6l45,28.295,55-34.572L63.35,0Zm0,0" transform="translate(-4.799 0)"/><path class="f" d="M81.591,130.687,42.236,105.951v22.426c0,5.93,4.805,11.7,13.183,15.816a62.806,62.806,0,0,0,27.2,5.725,62.775,62.775,0,0,0,27.2-5.725c8.379-4.121,13.184-9.886,13.184-15.816V105.951L83.643,130.687a1.914,1.914,0,0,1-2.052,0Zm0,0" transform="translate(-24.065 -57.186)"/><path class="f" d="M12.228,229.853l-4.038-23.7-8.076,28Zm0,0" transform="translate(-0.114 -111.271)"/><path class="f" d="M16.934,133.484a6.427,6.427,0,0,0-4.038-6.066v-35.7a6.777,6.777,0,0,1,.545-2.626,6.3,6.3,0,0,1,2.888-3.18L12.48,83.485a10.73,10.73,0,0,0-2.513,3.421,11.244,11.244,0,0,0-1.109,4.811v35.7A6.537,6.537,0,0,0,5,134.959a6.091,6.091,0,0,0,6.586,4.946,6.318,6.318,0,0,0,5.351-6.42Zm0,0" transform="translate(-2.801 -45.06)"/></g></g></g><g transform="translate(2204 -3836.71)"><g class="e" transform="translate(-31 570.71)"><g transform="translate(-1945.475 3981)"><path class="f" d="M8.353,34.571l6.138,3.852a9.74,9.74,0,0,1,5.249-2.458l43.384-5.686a2.051,2.051,0,0,1,2.251,1.875,2.13,2.13,0,0,1-1.759,2.4L20.232,40.243a5.727,5.727,0,0,0-1.878.6l45,28.295,55-34.572L63.35,0Zm0,0" transform="translate(-4.799 0)"/><path class="f" d="M81.591,130.687,42.236,105.951v22.426c0,5.93,4.805,11.7,13.183,15.816a62.806,62.806,0,0,0,27.2,5.725,62.775,62.775,0,0,0,27.2-5.725c8.379-4.121,13.184-9.886,13.184-15.816V105.951L83.643,130.687a1.914,1.914,0,0,1-2.052,0Zm0,0" transform="translate(-24.065 -57.186)"/><path class="f" d="M12.228,229.853l-4.038-23.7-8.076,28Zm0,0" transform="translate(-0.114 -111.271)"/><path class="f" d="M16.934,133.484a6.427,6.427,0,0,0-4.038-6.066v-35.7a6.777,6.777,0,0,1,.545-2.626,6.3,6.3,0,0,1,2.888-3.18L12.48,83.485a10.73,10.73,0,0,0-2.513,3.421,11.244,11.244,0,0,0-1.109,4.811v35.7A6.537,6.537,0,0,0,5,134.959a6.091,6.091,0,0,0,6.586,4.946,6.318,6.318,0,0,0,5.351-6.42Zm0,0" transform="translate(-2.801 -45.06)"/></g></g></g><g transform="translate(2399 -3836.71)"><g class="e" transform="translate(-31 570.71)"><g transform="translate(-1945.475 3981)"><path class="f" d="M8.353,34.571l6.138,3.852a9.74,9.74,0,0,1,5.249-2.458l43.384-5.686a2.051,2.051,0,0,1,2.251,1.875,2.13,2.13,0,0,1-1.759,2.4L20.232,40.243a5.727,5.727,0,0,0-1.878.6l45,28.295,55-34.572L63.35,0Zm0,0" transform="translate(-4.799 0)"/><path class="f" d="M81.591,130.687,42.236,105.951v22.426c0,5.93,4.805,11.7,13.183,15.816a62.806,62.806,0,0,0,27.2,5.725,62.775,62.775,0,0,0,27.2-5.725c8.379-4.121,13.184-9.886,13.184-15.816V105.951L83.643,130.687a1.914,1.914,0,0,1-2.052,0Zm0,0" transform="translate(-24.065 -57.186)"/><path class="f" d="M12.228,229.853l-4.038-23.7-8.076,28Zm0,0" transform="translate(-0.114 -111.271)"/><path class="f" d="M16.934,133.484a6.427,6.427,0,0,0-4.038-6.066v-35.7a6.777,6.777,0,0,1,.545-2.626,6.3,6.3,0,0,1,2.888-3.18L12.48,83.485a10.73,10.73,0,0,0-2.513,3.421,11.244,11.244,0,0,0-1.109,4.811v35.7A6.537,6.537,0,0,0,5,134.959a6.091,6.091,0,0,0,6.586,4.946,6.318,6.318,0,0,0,5.351-6.42Zm0,0" transform="translate(-2.801 -45.06)"/></g></g></g><g transform="translate(2594 -3836.71)"><g class="e" transform="translate(-31 570.71)"><g transform="translate(-1945.475 3981)"><path class="f" d="M8.353,34.571l6.138,3.852a9.74,9.74,0,0,1,5.249-2.458l43.384-5.686a2.051,2.051,0,0,1,2.251,1.875,2.13,2.13,0,0,1-1.759,2.4L20.232,40.243a5.727,5.727,0,0,0-1.878.6l45,28.295,55-34.572L63.35,0Zm0,0" transform="translate(-4.799 0)"/><path class="f" d="M81.591,130.687,42.236,105.951v22.426c0,5.93,4.805,11.7,13.183,15.816a62.806,62.806,0,0,0,27.2,5.725,62.775,62.775,0,0,0,27.2-5.725c8.379-4.121,13.184-9.886,13.184-15.816V105.951L83.643,130.687a1.914,1.914,0,0,1-2.052,0Zm0,0" transform="translate(-24.065 -57.186)"/><path class="f" d="M12.228,229.853l-4.038-23.7-8.076,28Zm0,0" transform="translate(-0.114 -111.271)"/><path class="f" d="M16.934,133.484a6.427,6.427,0,0,0-4.038-6.066v-35.7a6.777,6.777,0,0,1,.545-2.626,6.3,6.3,0,0,1,2.888-3.18L12.48,83.485a10.73,10.73,0,0,0-2.513,3.421,11.244,11.244,0,0,0-1.109,4.811v35.7A6.537,6.537,0,0,0,5,134.959a6.091,6.091,0,0,0,6.586,4.946,6.318,6.318,0,0,0,5.351-6.42Zm0,0" transform="translate(-2.801 -45.06)"/></g></g></g><g transform="translate(2789 -3836.71)"><g class="e" transform="translate(-31 570.71)"><g transform="translate(-1945.475 3981)"><path class="f" d="M8.353,34.571l6.138,3.852a9.74,9.74,0,0,1,5.249-2.458l43.384-5.686a2.051,2.051,0,0,1,2.251,1.875,2.13,2.13,0,0,1-1.759,2.4L20.232,40.243a5.727,5.727,0,0,0-1.878.6l45,28.295,55-34.572L63.35,0Zm0,0" transform="translate(-4.799 0)"/><path class="f" d="M81.591,130.687,42.236,105.951v22.426c0,5.93,4.805,11.7,13.183,15.816a62.806,62.806,0,0,0,27.2,5.725,62.775,62.775,0,0,0,27.2-5.725c8.379-4.121,13.184-9.886,13.184-15.816V105.951L83.643,130.687a1.914,1.914,0,0,1-2.052,0Zm0,0" transform="translate(-24.065 -57.186)"/><path class="f" d="M12.228,229.853l-4.038-23.7-8.076,28Zm0,0" transform="translate(-0.114 -111.271)"/><path class="f" d="M16.934,133.484a6.427,6.427,0,0,0-4.038-6.066v-35.7a6.777,6.777,0,0,1,.545-2.626,6.3,6.3,0,0,1,2.888-3.18L12.48,83.485a10.73,10.73,0,0,0-2.513,3.421,11.244,11.244,0,0,0-1.109,4.811v35.7A6.537,6.537,0,0,0,5,134.959a6.091,6.091,0,0,0,6.586,4.946,6.318,6.318,0,0,0,5.351-6.42Zm0,0" transform="translate(-2.801 -45.06)"/></g></g></g><g transform="translate(2984 -3836.71)"><g class="e" transform="translate(-31 570.71)"><g transform="translate(-1945.475 3981)"><path class="f" d="M8.353,34.571l6.138,3.852a9.74,9.74,0,0,1,5.249-2.458l43.384-5.686a2.051,2.051,0,0,1,2.251,1.875,2.13,2.13,0,0,1-1.759,2.4L20.232,40.243a5.727,5.727,0,0,0-1.878.6l45,28.295,55-34.572L63.35,0Zm0,0" transform="translate(-4.799 0)"/><path class="f" d="M81.591,130.687,42.236,105.951v22.426c0,5.93,4.805,11.7,13.183,15.816a62.806,62.806,0,0,0,27.2,5.725,62.775,62.775,0,0,0,27.2-5.725c8.379-4.121,13.184-9.886,13.184-15.816V105.951L83.643,130.687a1.914,1.914,0,0,1-2.052,0Zm0,0" transform="translate(-24.065 -57.186)"/><path class="f" d="M12.228,229.853l-4.038-23.7-8.076,28Zm0,0" transform="translate(-0.114 -111.271)"/><path class="f" d="M16.934,133.484a6.427,6.427,0,0,0-4.038-6.066v-35.7a6.777,6.777,0,0,1,.545-2.626,6.3,6.3,0,0,1,2.888-3.18L12.48,83.485a10.73,10.73,0,0,0-2.513,3.421,11.244,11.244,0,0,0-1.109,4.811v35.7A6.537,6.537,0,0,0,5,134.959a6.091,6.091,0,0,0,6.586,4.946,6.318,6.318,0,0,0,5.351-6.42Zm0,0" transform="translate(-2.801 -45.06)"/></g></g></g><g transform="translate(3179 -3836.71)"><g class="e" transform="translate(-31 570.71)"><g transform="translate(-1945.475 3981)"><path class="f" d="M8.353,34.571l6.138,3.852a9.74,9.74,0,0,1,5.249-2.458l43.384-5.686a2.051,2.051,0,0,1,2.251,1.875,2.13,2.13,0,0,1-1.759,2.4L20.232,40.243a5.727,5.727,0,0,0-1.878.6l45,28.295,55-34.572L63.35,0Zm0,0" transform="translate(-4.799 0)"/><path class="f" d="M81.591,130.687,42.236,105.951v22.426c0,5.93,4.805,11.7,13.183,15.816a62.806,62.806,0,0,0,27.2,5.725,62.775,62.775,0,0,0,27.2-5.725c8.379-4.121,13.184-9.886,13.184-15.816V105.951L83.643,130.687a1.914,1.914,0,0,1-2.052,0Zm0,0" transform="translate(-24.065 -57.186)"/><path class="f" d="M12.228,229.853l-4.038-23.7-8.076,28Zm0,0" transform="translate(-0.114 -111.271)"/><path class="f" d="M16.934,133.484a6.427,6.427,0,0,0-4.038-6.066v-35.7a6.777,6.777,0,0,1,.545-2.626,6.3,6.3,0,0,1,2.888-3.18L12.48,83.485a10.73,10.73,0,0,0-2.513,3.421,11.244,11.244,0,0,0-1.109,4.811v35.7A6.537,6.537,0,0,0,5,134.959a6.091,6.091,0,0,0,6.586,4.946,6.318,6.318,0,0,0,5.351-6.42Zm0,0" transform="translate(-2.801 -45.06)"/></g></g></g><g transform="translate(3374 -3836.71)"><g class="e" transform="translate(-31 570.71)"><g transform="translate(-1945.475 3981)"><path class="f" d="M8.353,34.571l6.138,3.852a9.74,9.74,0,0,1,5.249-2.458l43.384-5.686a2.051,2.051,0,0,1,2.251,1.875,2.13,2.13,0,0,1-1.759,2.4L20.232,40.243a5.727,5.727,0,0,0-1.878.6l45,28.295,55-34.572L63.35,0Zm0,0" transform="translate(-4.799 0)"/><path class="f" d="M81.591,130.687,42.236,105.951v22.426c0,5.93,4.805,11.7,13.183,15.816a62.806,62.806,0,0,0,27.2,5.725,62.775,62.775,0,0,0,27.2-5.725c8.379-4.121,13.184-9.886,13.184-15.816V105.951L83.643,130.687a1.914,1.914,0,0,1-2.052,0Zm0,0" transform="translate(-24.065 -57.186)"/><path class="f" d="M12.228,229.853l-4.038-23.7-8.076,28Zm0,0" transform="translate(-0.114 -111.271)"/><path class="f" d="M16.934,133.484a6.427,6.427,0,0,0-4.038-6.066v-35.7a6.777,6.777,0,0,1,.545-2.626,6.3,6.3,0,0,1,2.888-3.18L12.48,83.485a10.73,10.73,0,0,0-2.513,3.421,11.244,11.244,0,0,0-1.109,4.811v35.7A6.537,6.537,0,0,0,5,134.959a6.091,6.091,0,0,0,6.586,4.946,6.318,6.318,0,0,0,5.351-6.42Zm0,0" transform="translate(-2.801 -45.06)"/></g></g></g><g transform="translate(3569 -3836.71)"><g class="e" transform="translate(-31 570.71)"><g transform="translate(-1945.475 3981)"><path class="f" d="M8.353,34.571l6.138,3.852a9.74,9.74,0,0,1,5.249-2.458l43.384-5.686a2.051,2.051,0,0,1,2.251,1.875,2.13,2.13,0,0,1-1.759,2.4L20.232,40.243a5.727,5.727,0,0,0-1.878.6l45,28.295,55-34.572L63.35,0Zm0,0" transform="translate(-4.799 0)"/><path class="f" d="M81.591,130.687,42.236,105.951v22.426c0,5.93,4.805,11.7,13.183,15.816a62.806,62.806,0,0,0,27.2,5.725,62.775,62.775,0,0,0,27.2-5.725c8.379-4.121,13.184-9.886,13.184-15.816V105.951L83.643,130.687a1.914,1.914,0,0,1-2.052,0Zm0,0" transform="translate(-24.065 -57.186)"/><path class="f" d="M12.228,229.853l-4.038-23.7-8.076,28Zm0,0" transform="translate(-0.114 -111.271)"/><path class="f" d="M16.934,133.484a6.427,6.427,0,0,0-4.038-6.066v-35.7a6.777,6.777,0,0,1,.545-2.626,6.3,6.3,0,0,1,2.888-3.18L12.48,83.485a10.73,10.73,0,0,0-2.513,3.421,11.244,11.244,0,0,0-1.109,4.811v35.7A6.537,6.537,0,0,0,5,134.959a6.091,6.091,0,0,0,6.586,4.946,6.318,6.318,0,0,0,5.351-6.42Zm0,0" transform="translate(-2.801 -45.06)"/></g></g></g><g transform="translate(3764 -3836.71)"><g class="e" transform="translate(-31 570.71)"><g transform="translate(-1945.475 3981)"><path class="f" d="M8.353,34.571l6.138,3.852a9.74,9.74,0,0,1,5.249-2.458l43.384-5.686a2.051,2.051,0,0,1,2.251,1.875,2.13,2.13,0,0,1-1.759,2.4L20.232,40.243a5.727,5.727,0,0,0-1.878.6l45,28.295,55-34.572L63.35,0Zm0,0" transform="translate(-4.799 0)"/><path class="f" d="M81.591,130.687,42.236,105.951v22.426c0,5.93,4.805,11.7,13.183,15.816a62.806,62.806,0,0,0,27.2,5.725,62.775,62.775,0,0,0,27.2-5.725c8.379-4.121,13.184-9.886,13.184-15.816V105.951L83.643,130.687a1.914,1.914,0,0,1-2.052,0Zm0,0" transform="translate(-24.065 -57.186)"/><path class="f" d="M12.228,229.853l-4.038-23.7-8.076,28Zm0,0" transform="translate(-0.114 -111.271)"/><path class="f" d="M16.934,133.484a6.427,6.427,0,0,0-4.038-6.066v-35.7a6.777,6.777,0,0,1,.545-2.626,6.3,6.3,0,0,1,2.888-3.18L12.48,83.485a10.73,10.73,0,0,0-2.513,3.421,11.244,11.244,0,0,0-1.109,4.811v35.7A6.537,6.537,0,0,0,5,134.959a6.091,6.091,0,0,0,6.586,4.946,6.318,6.318,0,0,0,5.351-6.42Zm0,0" transform="translate(-2.801 -45.06)"/></g></g></g><g transform="translate(3959 -3836.71)"><g class="e" transform="translate(-31 570.71)"><g transform="translate(-1945.475 3981)"><path class="f" d="M8.353,34.571l6.138,3.852a9.74,9.74,0,0,1,5.249-2.458l43.384-5.686a2.051,2.051,0,0,1,2.251,1.875,2.13,2.13,0,0,1-1.759,2.4L20.232,40.243a5.727,5.727,0,0,0-1.878.6l45,28.295,55-34.572L63.35,0Zm0,0" transform="translate(-4.799 0)"/><path class="f" d="M81.591,130.687,42.236,105.951v22.426c0,5.93,4.805,11.7,13.183,15.816a62.806,62.806,0,0,0,27.2,5.725,62.775,62.775,0,0,0,27.2-5.725c8.379-4.121,13.184-9.886,13.184-15.816V105.951L83.643,130.687a1.914,1.914,0,0,1-2.052,0Zm0,0" transform="translate(-24.065 -57.186)"/><path class="f" d="M12.228,229.853l-4.038-23.7-8.076,28Zm0,0" transform="translate(-0.114 -111.271)"/><path class="f" d="M16.934,133.484a6.427,6.427,0,0,0-4.038-6.066v-35.7a6.777,6.777,0,0,1,.545-2.626,6.3,6.3,0,0,1,2.888-3.18L12.48,83.485a10.73,10.73,0,0,0-2.513,3.421,11.244,11.244,0,0,0-1.109,4.811v35.7A6.537,6.537,0,0,0,5,134.959a6.091,6.091,0,0,0,6.586,4.946,6.318,6.318,0,0,0,5.351-6.42Zm0,0" transform="translate(-2.801 -45.06)"/></g></g></g><g transform="translate(2009 -3693.71)"><g class="e" transform="translate(-31 570.71)"><g transform="translate(-1945.475 3981)"><path class="f" d="M8.353,34.571l6.138,3.852a9.74,9.74,0,0,1,5.249-2.458l43.384-5.686a2.051,2.051,0,0,1,2.251,1.875,2.13,2.13,0,0,1-1.759,2.4L20.232,40.243a5.727,5.727,0,0,0-1.878.6l45,28.295,55-34.572L63.35,0Zm0,0" transform="translate(-4.799 0)"/><path class="f" d="M81.591,130.687,42.236,105.951v22.426c0,5.93,4.805,11.7,13.183,15.816a62.806,62.806,0,0,0,27.2,5.725,62.775,62.775,0,0,0,27.2-5.725c8.379-4.121,13.184-9.886,13.184-15.816V105.951L83.643,130.687a1.914,1.914,0,0,1-2.052,0Zm0,0" transform="translate(-24.065 -57.186)"/><path class="f" d="M12.228,229.853l-4.038-23.7-8.076,28Zm0,0" transform="translate(-0.114 -111.271)"/><path class="f" d="M16.934,133.484a6.427,6.427,0,0,0-4.038-6.066v-35.7a6.777,6.777,0,0,1,.545-2.626,6.3,6.3,0,0,1,2.888-3.18L12.48,83.485a10.73,10.73,0,0,0-2.513,3.421,11.244,11.244,0,0,0-1.109,4.811v35.7A6.537,6.537,0,0,0,5,134.959a6.091,6.091,0,0,0,6.586,4.946,6.318,6.318,0,0,0,5.351-6.42Zm0,0" transform="translate(-2.801 -45.06)"/></g></g></g><g transform="translate(2204 -3693.71)"><g class="e" transform="translate(-31 570.71)"><g transform="translate(-1945.475 3981)"><path class="f" d="M8.353,34.571l6.138,3.852a9.74,9.74,0,0,1,5.249-2.458l43.384-5.686a2.051,2.051,0,0,1,2.251,1.875,2.13,2.13,0,0,1-1.759,2.4L20.232,40.243a5.727,5.727,0,0,0-1.878.6l45,28.295,55-34.572L63.35,0Zm0,0" transform="translate(-4.799 0)"/><path class="f" d="M81.591,130.687,42.236,105.951v22.426c0,5.93,4.805,11.7,13.183,15.816a62.806,62.806,0,0,0,27.2,5.725,62.775,62.775,0,0,0,27.2-5.725c8.379-4.121,13.184-9.886,13.184-15.816V105.951L83.643,130.687a1.914,1.914,0,0,1-2.052,0Zm0,0" transform="translate(-24.065 -57.186)"/><path class="f" d="M12.228,229.853l-4.038-23.7-8.076,28Zm0,0" transform="translate(-0.114 -111.271)"/><path class="f" d="M16.934,133.484a6.427,6.427,0,0,0-4.038-6.066v-35.7a6.777,6.777,0,0,1,.545-2.626,6.3,6.3,0,0,1,2.888-3.18L12.48,83.485a10.73,10.73,0,0,0-2.513,3.421,11.244,11.244,0,0,0-1.109,4.811v35.7A6.537,6.537,0,0,0,5,134.959a6.091,6.091,0,0,0,6.586,4.946,6.318,6.318,0,0,0,5.351-6.42Zm0,0" transform="translate(-2.801 -45.06)"/></g></g></g><g transform="translate(2399 -3693.71)"><g class="e" transform="translate(-31 570.71)"><g transform="translate(-1945.475 3981)"><path class="f" d="M8.353,34.571l6.138,3.852a9.74,9.74,0,0,1,5.249-2.458l43.384-5.686a2.051,2.051,0,0,1,2.251,1.875,2.13,2.13,0,0,1-1.759,2.4L20.232,40.243a5.727,5.727,0,0,0-1.878.6l45,28.295,55-34.572L63.35,0Zm0,0" transform="translate(-4.799 0)"/><path class="f" d="M81.591,130.687,42.236,105.951v22.426c0,5.93,4.805,11.7,13.183,15.816a62.806,62.806,0,0,0,27.2,5.725,62.775,62.775,0,0,0,27.2-5.725c8.379-4.121,13.184-9.886,13.184-15.816V105.951L83.643,130.687a1.914,1.914,0,0,1-2.052,0Zm0,0" transform="translate(-24.065 -57.186)"/><path class="f" d="M12.228,229.853l-4.038-23.7-8.076,28Zm0,0" transform="translate(-0.114 -111.271)"/><path class="f" d="M16.934,133.484a6.427,6.427,0,0,0-4.038-6.066v-35.7a6.777,6.777,0,0,1,.545-2.626,6.3,6.3,0,0,1,2.888-3.18L12.48,83.485a10.73,10.73,0,0,0-2.513,3.421,11.244,11.244,0,0,0-1.109,4.811v35.7A6.537,6.537,0,0,0,5,134.959a6.091,6.091,0,0,0,6.586,4.946,6.318,6.318,0,0,0,5.351-6.42Zm0,0" transform="translate(-2.801 -45.06)"/></g></g></g><g transform="translate(2594 -3693.71)"><g class="e" transform="translate(-31 570.71)"><g transform="translate(-1945.475 3981)"><path class="f" d="M8.353,34.571l6.138,3.852a9.74,9.74,0,0,1,5.249-2.458l43.384-5.686a2.051,2.051,0,0,1,2.251,1.875,2.13,2.13,0,0,1-1.759,2.4L20.232,40.243a5.727,5.727,0,0,0-1.878.6l45,28.295,55-34.572L63.35,0Zm0,0" transform="translate(-4.799 0)"/><path class="f" d="M81.591,130.687,42.236,105.951v22.426c0,5.93,4.805,11.7,13.183,15.816a62.806,62.806,0,0,0,27.2,5.725,62.775,62.775,0,0,0,27.2-5.725c8.379-4.121,13.184-9.886,13.184-15.816V105.951L83.643,130.687a1.914,1.914,0,0,1-2.052,0Zm0,0" transform="translate(-24.065 -57.186)"/><path class="f" d="M12.228,229.853l-4.038-23.7-8.076,28Zm0,0" transform="translate(-0.114 -111.271)"/><path class="f" d="M16.934,133.484a6.427,6.427,0,0,0-4.038-6.066v-35.7a6.777,6.777,0,0,1,.545-2.626,6.3,6.3,0,0,1,2.888-3.18L12.48,83.485a10.73,10.73,0,0,0-2.513,3.421,11.244,11.244,0,0,0-1.109,4.811v35.7A6.537,6.537,0,0,0,5,134.959a6.091,6.091,0,0,0,6.586,4.946,6.318,6.318,0,0,0,5.351-6.42Zm0,0" transform="translate(-2.801 -45.06)"/></g></g></g><g transform="translate(2789 -3693.71)"><g class="e" transform="translate(-31 570.71)"><g transform="translate(-1945.475 3981)"><path class="f" d="M8.353,34.571l6.138,3.852a9.74,9.74,0,0,1,5.249-2.458l43.384-5.686a2.051,2.051,0,0,1,2.251,1.875,2.13,2.13,0,0,1-1.759,2.4L20.232,40.243a5.727,5.727,0,0,0-1.878.6l45,28.295,55-34.572L63.35,0Zm0,0" transform="translate(-4.799 0)"/><path class="f" d="M81.591,130.687,42.236,105.951v22.426c0,5.93,4.805,11.7,13.183,15.816a62.806,62.806,0,0,0,27.2,5.725,62.775,62.775,0,0,0,27.2-5.725c8.379-4.121,13.184-9.886,13.184-15.816V105.951L83.643,130.687a1.914,1.914,0,0,1-2.052,0Zm0,0" transform="translate(-24.065 -57.186)"/><path class="f" d="M12.228,229.853l-4.038-23.7-8.076,28Zm0,0" transform="translate(-0.114 -111.271)"/><path class="f" d="M16.934,133.484a6.427,6.427,0,0,0-4.038-6.066v-35.7a6.777,6.777,0,0,1,.545-2.626,6.3,6.3,0,0,1,2.888-3.18L12.48,83.485a10.73,10.73,0,0,0-2.513,3.421,11.244,11.244,0,0,0-1.109,4.811v35.7A6.537,6.537,0,0,0,5,134.959a6.091,6.091,0,0,0,6.586,4.946,6.318,6.318,0,0,0,5.351-6.42Zm0,0" transform="translate(-2.801 -45.06)"/></g></g></g><g transform="translate(2984 -3693.71)"><g class="e" transform="translate(-31 570.71)"><g transform="translate(-1945.475 3981)"><path class="f" d="M8.353,34.571l6.138,3.852a9.74,9.74,0,0,1,5.249-2.458l43.384-5.686a2.051,2.051,0,0,1,2.251,1.875,2.13,2.13,0,0,1-1.759,2.4L20.232,40.243a5.727,5.727,0,0,0-1.878.6l45,28.295,55-34.572L63.35,0Zm0,0" transform="translate(-4.799 0)"/><path class="f" d="M81.591,130.687,42.236,105.951v22.426c0,5.93,4.805,11.7,13.183,15.816a62.806,62.806,0,0,0,27.2,5.725,62.775,62.775,0,0,0,27.2-5.725c8.379-4.121,13.184-9.886,13.184-15.816V105.951L83.643,130.687a1.914,1.914,0,0,1-2.052,0Zm0,0" transform="translate(-24.065 -57.186)"/><path class="f" d="M12.228,229.853l-4.038-23.7-8.076,28Zm0,0" transform="translate(-0.114 -111.271)"/><path class="f" d="M16.934,133.484a6.427,6.427,0,0,0-4.038-6.066v-35.7a6.777,6.777,0,0,1,.545-2.626,6.3,6.3,0,0,1,2.888-3.18L12.48,83.485a10.73,10.73,0,0,0-2.513,3.421,11.244,11.244,0,0,0-1.109,4.811v35.7A6.537,6.537,0,0,0,5,134.959a6.091,6.091,0,0,0,6.586,4.946,6.318,6.318,0,0,0,5.351-6.42Zm0,0" transform="translate(-2.801 -45.06)"/></g></g></g><g transform="translate(3179 -3693.71)"><g class="e" transform="translate(-31 570.71)"><g transform="translate(-1945.475 3981)"><path class="f" d="M8.353,34.571l6.138,3.852a9.74,9.74,0,0,1,5.249-2.458l43.384-5.686a2.051,2.051,0,0,1,2.251,1.875,2.13,2.13,0,0,1-1.759,2.4L20.232,40.243a5.727,5.727,0,0,0-1.878.6l45,28.295,55-34.572L63.35,0Zm0,0" transform="translate(-4.799 0)"/><path class="f" d="M81.591,130.687,42.236,105.951v22.426c0,5.93,4.805,11.7,13.183,15.816a62.806,62.806,0,0,0,27.2,5.725,62.775,62.775,0,0,0,27.2-5.725c8.379-4.121,13.184-9.886,13.184-15.816V105.951L83.643,130.687a1.914,1.914,0,0,1-2.052,0Zm0,0" transform="translate(-24.065 -57.186)"/><path class="f" d="M12.228,229.853l-4.038-23.7-8.076,28Zm0,0" transform="translate(-0.114 -111.271)"/><path class="f" d="M16.934,133.484a6.427,6.427,0,0,0-4.038-6.066v-35.7a6.777,6.777,0,0,1,.545-2.626,6.3,6.3,0,0,1,2.888-3.18L12.48,83.485a10.73,10.73,0,0,0-2.513,3.421,11.244,11.244,0,0,0-1.109,4.811v35.7A6.537,6.537,0,0,0,5,134.959a6.091,6.091,0,0,0,6.586,4.946,6.318,6.318,0,0,0,5.351-6.42Zm0,0" transform="translate(-2.801 -45.06)"/></g></g></g><g transform="translate(3374 -3693.71)"><g class="e" transform="translate(-31 570.71)"><g transform="translate(-1945.475 3981)"><path class="f" d="M8.353,34.571l6.138,3.852a9.74,9.74,0,0,1,5.249-2.458l43.384-5.686a2.051,2.051,0,0,1,2.251,1.875,2.13,2.13,0,0,1-1.759,2.4L20.232,40.243a5.727,5.727,0,0,0-1.878.6l45,28.295,55-34.572L63.35,0Zm0,0" transform="translate(-4.799 0)"/><path class="f" d="M81.591,130.687,42.236,105.951v22.426c0,5.93,4.805,11.7,13.183,15.816a62.806,62.806,0,0,0,27.2,5.725,62.775,62.775,0,0,0,27.2-5.725c8.379-4.121,13.184-9.886,13.184-15.816V105.951L83.643,130.687a1.914,1.914,0,0,1-2.052,0Zm0,0" transform="translate(-24.065 -57.186)"/><path class="f" d="M12.228,229.853l-4.038-23.7-8.076,28Zm0,0" transform="translate(-0.114 -111.271)"/><path class="f" d="M16.934,133.484a6.427,6.427,0,0,0-4.038-6.066v-35.7a6.777,6.777,0,0,1,.545-2.626,6.3,6.3,0,0,1,2.888-3.18L12.48,83.485a10.73,10.73,0,0,0-2.513,3.421,11.244,11.244,0,0,0-1.109,4.811v35.7A6.537,6.537,0,0,0,5,134.959a6.091,6.091,0,0,0,6.586,4.946,6.318,6.318,0,0,0,5.351-6.42Zm0,0" transform="translate(-2.801 -45.06)"/></g></g></g><g transform="translate(3569 -3693.71)"><g class="e" transform="translate(-31 570.71)"><g transform="translate(-1945.475 3981)"><path class="f" d="M8.353,34.571l6.138,3.852a9.74,9.74,0,0,1,5.249-2.458l43.384-5.686a2.051,2.051,0,0,1,2.251,1.875,2.13,2.13,0,0,1-1.759,2.4L20.232,40.243a5.727,5.727,0,0,0-1.878.6l45,28.295,55-34.572L63.35,0Zm0,0" transform="translate(-4.799 0)"/><path class="f" d="M81.591,130.687,42.236,105.951v22.426c0,5.93,4.805,11.7,13.183,15.816a62.806,62.806,0,0,0,27.2,5.725,62.775,62.775,0,0,0,27.2-5.725c8.379-4.121,13.184-9.886,13.184-15.816V105.951L83.643,130.687a1.914,1.914,0,0,1-2.052,0Zm0,0" transform="translate(-24.065 -57.186)"/><path class="f" d="M12.228,229.853l-4.038-23.7-8.076,28Zm0,0" transform="translate(-0.114 -111.271)"/><path class="f" d="M16.934,133.484a6.427,6.427,0,0,0-4.038-6.066v-35.7a6.777,6.777,0,0,1,.545-2.626,6.3,6.3,0,0,1,2.888-3.18L12.48,83.485a10.73,10.73,0,0,0-2.513,3.421,11.244,11.244,0,0,0-1.109,4.811v35.7A6.537,6.537,0,0,0,5,134.959a6.091,6.091,0,0,0,6.586,4.946,6.318,6.318,0,0,0,5.351-6.42Zm0,0" transform="translate(-2.801 -45.06)"/></g></g></g><g transform="translate(3764 -3693.71)"><g class="e" transform="translate(-31 570.71)"><g transform="translate(-1945.475 3981)"><path class="f" d="M8.353,34.571l6.138,3.852a9.74,9.74,0,0,1,5.249-2.458l43.384-5.686a2.051,2.051,0,0,1,2.251,1.875,2.13,2.13,0,0,1-1.759,2.4L20.232,40.243a5.727,5.727,0,0,0-1.878.6l45,28.295,55-34.572L63.35,0Zm0,0" transform="translate(-4.799 0)"/><path class="f" d="M81.591,130.687,42.236,105.951v22.426c0,5.93,4.805,11.7,13.183,15.816a62.806,62.806,0,0,0,27.2,5.725,62.775,62.775,0,0,0,27.2-5.725c8.379-4.121,13.184-9.886,13.184-15.816V105.951L83.643,130.687a1.914,1.914,0,0,1-2.052,0Zm0,0" transform="translate(-24.065 -57.186)"/><path class="f" d="M12.228,229.853l-4.038-23.7-8.076,28Zm0,0" transform="translate(-0.114 -111.271)"/><path class="f" d="M16.934,133.484a6.427,6.427,0,0,0-4.038-6.066v-35.7a6.777,6.777,0,0,1,.545-2.626,6.3,6.3,0,0,1,2.888-3.18L12.48,83.485a10.73,10.73,0,0,0-2.513,3.421,11.244,11.244,0,0,0-1.109,4.811v35.7A6.537,6.537,0,0,0,5,134.959a6.091,6.091,0,0,0,6.586,4.946,6.318,6.318,0,0,0,5.351-6.42Zm0,0" transform="translate(-2.801 -45.06)"/></g></g></g><g transform="translate(3959 -3693.71)"><g class="e" transform="translate(-31 570.71)"><g transform="translate(-1945.475 3981)"><path class="f" d="M8.353,34.571l6.138,3.852a9.74,9.74,0,0,1,5.249-2.458l43.384-5.686a2.051,2.051,0,0,1,2.251,1.875,2.13,2.13,0,0,1-1.759,2.4L20.232,40.243a5.727,5.727,0,0,0-1.878.6l45,28.295,55-34.572L63.35,0Zm0,0" transform="translate(-4.799 0)"/><path class="f" d="M81.591,130.687,42.236,105.951v22.426c0,5.93,4.805,11.7,13.183,15.816a62.806,62.806,0,0,0,27.2,5.725,62.775,62.775,0,0,0,27.2-5.725c8.379-4.121,13.184-9.886,13.184-15.816V105.951L83.643,130.687a1.914,1.914,0,0,1-2.052,0Zm0,0" transform="translate(-24.065 -57.186)"/><path class="f" d="M12.228,229.853l-4.038-23.7-8.076,28Zm0,0" transform="translate(-0.114 -111.271)"/><path class="f" d="M16.934,133.484a6.427,6.427,0,0,0-4.038-6.066v-35.7a6.777,6.777,0,0,1,.545-2.626,6.3,6.3,0,0,1,2.888-3.18L12.48,83.485a10.73,10.73,0,0,0-2.513,3.421,11.244,11.244,0,0,0-1.109,4.811v35.7A6.537,6.537,0,0,0,5,134.959a6.091,6.091,0,0,0,6.586,4.946,6.318,6.318,0,0,0,5.351-6.42Zm0,0" transform="translate(-2.801 -45.06)"/></g></g></g><g transform="translate(2009 -3550.71)"><g class="e" transform="translate(-31 570.71)"><g transform="translate(-1945.475 3981)"><path class="f" d="M8.353,34.571l6.138,3.852a9.74,9.74,0,0,1,5.249-2.458l43.384-5.686a2.051,2.051,0,0,1,2.251,1.875,2.13,2.13,0,0,1-1.759,2.4L20.232,40.243a5.727,5.727,0,0,0-1.878.6l45,28.295,55-34.572L63.35,0Zm0,0" transform="translate(-4.799 0)"/><path class="f" d="M81.591,130.687,42.236,105.951v22.426c0,5.93,4.805,11.7,13.183,15.816a62.806,62.806,0,0,0,27.2,5.725,62.775,62.775,0,0,0,27.2-5.725c8.379-4.121,13.184-9.886,13.184-15.816V105.951L83.643,130.687a1.914,1.914,0,0,1-2.052,0Zm0,0" transform="translate(-24.065 -57.186)"/><path class="f" d="M12.228,229.853l-4.038-23.7-8.076,28Zm0,0" transform="translate(-0.114 -111.271)"/><path class="f" d="M16.934,133.484a6.427,6.427,0,0,0-4.038-6.066v-35.7a6.777,6.777,0,0,1,.545-2.626,6.3,6.3,0,0,1,2.888-3.18L12.48,83.485a10.73,10.73,0,0,0-2.513,3.421,11.244,11.244,0,0,0-1.109,4.811v35.7A6.537,6.537,0,0,0,5,134.959a6.091,6.091,0,0,0,6.586,4.946,6.318,6.318,0,0,0,5.351-6.42Zm0,0" transform="translate(-2.801 -45.06)"/></g></g></g><g transform="translate(2204 -3550.71)"><g class="e" transform="translate(-31 570.71)"><g transform="translate(-1945.475 3981)"><path class="f" d="M8.353,34.571l6.138,3.852a9.74,9.74,0,0,1,5.249-2.458l43.384-5.686a2.051,2.051,0,0,1,2.251,1.875,2.13,2.13,0,0,1-1.759,2.4L20.232,40.243a5.727,5.727,0,0,0-1.878.6l45,28.295,55-34.572L63.35,0Zm0,0" transform="translate(-4.799 0)"/><path class="f" d="M81.591,130.687,42.236,105.951v22.426c0,5.93,4.805,11.7,13.183,15.816a62.806,62.806,0,0,0,27.2,5.725,62.775,62.775,0,0,0,27.2-5.725c8.379-4.121,13.184-9.886,13.184-15.816V105.951L83.643,130.687a1.914,1.914,0,0,1-2.052,0Zm0,0" transform="translate(-24.065 -57.186)"/><path class="f" d="M12.228,229.853l-4.038-23.7-8.076,28Zm0,0" transform="translate(-0.114 -111.271)"/><path class="f" d="M16.934,133.484a6.427,6.427,0,0,0-4.038-6.066v-35.7a6.777,6.777,0,0,1,.545-2.626,6.3,6.3,0,0,1,2.888-3.18L12.48,83.485a10.73,10.73,0,0,0-2.513,3.421,11.244,11.244,0,0,0-1.109,4.811v35.7A6.537,6.537,0,0,0,5,134.959a6.091,6.091,0,0,0,6.586,4.946,6.318,6.318,0,0,0,5.351-6.42Zm0,0" transform="translate(-2.801 -45.06)"/></g></g></g><g transform="translate(2399 -3550.71)"><g class="e" transform="translate(-31 570.71)"><g transform="translate(-1945.475 3981)"><path class="f" d="M8.353,34.571l6.138,3.852a9.74,9.74,0,0,1,5.249-2.458l43.384-5.686a2.051,2.051,0,0,1,2.251,1.875,2.13,2.13,0,0,1-1.759,2.4L20.232,40.243a5.727,5.727,0,0,0-1.878.6l45,28.295,55-34.572L63.35,0Zm0,0" transform="translate(-4.799 0)"/><path class="f" d="M81.591,130.687,42.236,105.951v22.426c0,5.93,4.805,11.7,13.183,15.816a62.806,62.806,0,0,0,27.2,5.725,62.775,62.775,0,0,0,27.2-5.725c8.379-4.121,13.184-9.886,13.184-15.816V105.951L83.643,130.687a1.914,1.914,0,0,1-2.052,0Zm0,0" transform="translate(-24.065 -57.186)"/><path class="f" d="M12.228,229.853l-4.038-23.7-8.076,28Zm0,0" transform="translate(-0.114 -111.271)"/><path class="f" d="M16.934,133.484a6.427,6.427,0,0,0-4.038-6.066v-35.7a6.777,6.777,0,0,1,.545-2.626,6.3,6.3,0,0,1,2.888-3.18L12.48,83.485a10.73,10.73,0,0,0-2.513,3.421,11.244,11.244,0,0,0-1.109,4.811v35.7A6.537,6.537,0,0,0,5,134.959a6.091,6.091,0,0,0,6.586,4.946,6.318,6.318,0,0,0,5.351-6.42Zm0,0" transform="translate(-2.801 -45.06)"/></g></g></g><g transform="translate(2594 -3550.71)"><g class="e" transform="translate(-31 570.71)"><g transform="translate(-1945.475 3981)"><path class="f" d="M8.353,34.571l6.138,3.852a9.74,9.74,0,0,1,5.249-2.458l43.384-5.686a2.051,2.051,0,0,1,2.251,1.875,2.13,2.13,0,0,1-1.759,2.4L20.232,40.243a5.727,5.727,0,0,0-1.878.6l45,28.295,55-34.572L63.35,0Zm0,0" transform="translate(-4.799 0)"/><path class="f" d="M81.591,130.687,42.236,105.951v22.426c0,5.93,4.805,11.7,13.183,15.816a62.806,62.806,0,0,0,27.2,5.725,62.775,62.775,0,0,0,27.2-5.725c8.379-4.121,13.184-9.886,13.184-15.816V105.951L83.643,130.687a1.914,1.914,0,0,1-2.052,0Zm0,0" transform="translate(-24.065 -57.186)"/><path class="f" d="M12.228,229.853l-4.038-23.7-8.076,28Zm0,0" transform="translate(-0.114 -111.271)"/><path class="f" d="M16.934,133.484a6.427,6.427,0,0,0-4.038-6.066v-35.7a6.777,6.777,0,0,1,.545-2.626,6.3,6.3,0,0,1,2.888-3.18L12.48,83.485a10.73,10.73,0,0,0-2.513,3.421,11.244,11.244,0,0,0-1.109,4.811v35.7A6.537,6.537,0,0,0,5,134.959a6.091,6.091,0,0,0,6.586,4.946,6.318,6.318,0,0,0,5.351-6.42Zm0,0" transform="translate(-2.801 -45.06)"/></g></g></g><g transform="translate(2789 -3550.71)"><g class="e" transform="translate(-31 570.71)"><g transform="translate(-1945.475 3981)"><path class="f" d="M8.353,34.571l6.138,3.852a9.74,9.74,0,0,1,5.249-2.458l43.384-5.686a2.051,2.051,0,0,1,2.251,1.875,2.13,2.13,0,0,1-1.759,2.4L20.232,40.243a5.727,5.727,0,0,0-1.878.6l45,28.295,55-34.572L63.35,0Zm0,0" transform="translate(-4.799 0)"/><path class="f" d="M81.591,130.687,42.236,105.951v22.426c0,5.93,4.805,11.7,13.183,15.816a62.806,62.806,0,0,0,27.2,5.725,62.775,62.775,0,0,0,27.2-5.725c8.379-4.121,13.184-9.886,13.184-15.816V105.951L83.643,130.687a1.914,1.914,0,0,1-2.052,0Zm0,0" transform="translate(-24.065 -57.186)"/><path class="f" d="M12.228,229.853l-4.038-23.7-8.076,28Zm0,0" transform="translate(-0.114 -111.271)"/><path class="f" d="M16.934,133.484a6.427,6.427,0,0,0-4.038-6.066v-35.7a6.777,6.777,0,0,1,.545-2.626,6.3,6.3,0,0,1,2.888-3.18L12.48,83.485a10.73,10.73,0,0,0-2.513,3.421,11.244,11.244,0,0,0-1.109,4.811v35.7A6.537,6.537,0,0,0,5,134.959a6.091,6.091,0,0,0,6.586,4.946,6.318,6.318,0,0,0,5.351-6.42Zm0,0" transform="translate(-2.801 -45.06)"/></g></g></g><g transform="translate(2984 -3550.71)"><g class="e" transform="translate(-31 570.71)"><g transform="translate(-1945.475 3981)"><path class="f" d="M8.353,34.571l6.138,3.852a9.74,9.74,0,0,1,5.249-2.458l43.384-5.686a2.051,2.051,0,0,1,2.251,1.875,2.13,2.13,0,0,1-1.759,2.4L20.232,40.243a5.727,5.727,0,0,0-1.878.6l45,28.295,55-34.572L63.35,0Zm0,0" transform="translate(-4.799 0)"/><path class="f" d="M81.591,130.687,42.236,105.951v22.426c0,5.93,4.805,11.7,13.183,15.816a62.806,62.806,0,0,0,27.2,5.725,62.775,62.775,0,0,0,27.2-5.725c8.379-4.121,13.184-9.886,13.184-15.816V105.951L83.643,130.687a1.914,1.914,0,0,1-2.052,0Zm0,0" transform="translate(-24.065 -57.186)"/><path class="f" d="M12.228,229.853l-4.038-23.7-8.076,28Zm0,0" transform="translate(-0.114 -111.271)"/><path class="f" d="M16.934,133.484a6.427,6.427,0,0,0-4.038-6.066v-35.7a6.777,6.777,0,0,1,.545-2.626,6.3,6.3,0,0,1,2.888-3.18L12.48,83.485a10.73,10.73,0,0,0-2.513,3.421,11.244,11.244,0,0,0-1.109,4.811v35.7A6.537,6.537,0,0,0,5,134.959a6.091,6.091,0,0,0,6.586,4.946,6.318,6.318,0,0,0,5.351-6.42Zm0,0" transform="translate(-2.801 -45.06)"/></g></g></g><g transform="translate(3179 -3550.71)"><g class="e" transform="translate(-31 570.71)"><g transform="translate(-1945.475 3981)"><path class="f" d="M8.353,34.571l6.138,3.852a9.74,9.74,0,0,1,5.249-2.458l43.384-5.686a2.051,2.051,0,0,1,2.251,1.875,2.13,2.13,0,0,1-1.759,2.4L20.232,40.243a5.727,5.727,0,0,0-1.878.6l45,28.295,55-34.572L63.35,0Zm0,0" transform="translate(-4.799 0)"/><path class="f" d="M81.591,130.687,42.236,105.951v22.426c0,5.93,4.805,11.7,13.183,15.816a62.806,62.806,0,0,0,27.2,5.725,62.775,62.775,0,0,0,27.2-5.725c8.379-4.121,13.184-9.886,13.184-15.816V105.951L83.643,130.687a1.914,1.914,0,0,1-2.052,0Zm0,0" transform="translate(-24.065 -57.186)"/><path class="f" d="M12.228,229.853l-4.038-23.7-8.076,28Zm0,0" transform="translate(-0.114 -111.271)"/><path class="f" d="M16.934,133.484a6.427,6.427,0,0,0-4.038-6.066v-35.7a6.777,6.777,0,0,1,.545-2.626,6.3,6.3,0,0,1,2.888-3.18L12.48,83.485a10.73,10.73,0,0,0-2.513,3.421,11.244,11.244,0,0,0-1.109,4.811v35.7A6.537,6.537,0,0,0,5,134.959a6.091,6.091,0,0,0,6.586,4.946,6.318,6.318,0,0,0,5.351-6.42Zm0,0" transform="translate(-2.801 -45.06)"/></g></g></g><g transform="translate(3374 -3550.71)"><g class="e" transform="translate(-31 570.71)"><g transform="translate(-1945.475 3981)"><path class="f" d="M8.353,34.571l6.138,3.852a9.74,9.74,0,0,1,5.249-2.458l43.384-5.686a2.051,2.051,0,0,1,2.251,1.875,2.13,2.13,0,0,1-1.759,2.4L20.232,40.243a5.727,5.727,0,0,0-1.878.6l45,28.295,55-34.572L63.35,0Zm0,0" transform="translate(-4.799 0)"/><path class="f" d="M81.591,130.687,42.236,105.951v22.426c0,5.93,4.805,11.7,13.183,15.816a62.806,62.806,0,0,0,27.2,5.725,62.775,62.775,0,0,0,27.2-5.725c8.379-4.121,13.184-9.886,13.184-15.816V105.951L83.643,130.687a1.914,1.914,0,0,1-2.052,0Zm0,0" transform="translate(-24.065 -57.186)"/><path class="f" d="M12.228,229.853l-4.038-23.7-8.076,28Zm0,0" transform="translate(-0.114 -111.271)"/><path class="f" d="M16.934,133.484a6.427,6.427,0,0,0-4.038-6.066v-35.7a6.777,6.777,0,0,1,.545-2.626,6.3,6.3,0,0,1,2.888-3.18L12.48,83.485a10.73,10.73,0,0,0-2.513,3.421,11.244,11.244,0,0,0-1.109,4.811v35.7A6.537,6.537,0,0,0,5,134.959a6.091,6.091,0,0,0,6.586,4.946,6.318,6.318,0,0,0,5.351-6.42Zm0,0" transform="translate(-2.801 -45.06)"/></g></g></g><g transform="translate(3569 -3550.71)"><g class="e" transform="translate(-31 570.71)"><g transform="translate(-1945.475 3981)"><path class="f" d="M8.353,34.571l6.138,3.852a9.74,9.74,0,0,1,5.249-2.458l43.384-5.686a2.051,2.051,0,0,1,2.251,1.875,2.13,2.13,0,0,1-1.759,2.4L20.232,40.243a5.727,5.727,0,0,0-1.878.6l45,28.295,55-34.572L63.35,0Zm0,0" transform="translate(-4.799 0)"/><path class="f" d="M81.591,130.687,42.236,105.951v22.426c0,5.93,4.805,11.7,13.183,15.816a62.806,62.806,0,0,0,27.2,5.725,62.775,62.775,0,0,0,27.2-5.725c8.379-4.121,13.184-9.886,13.184-15.816V105.951L83.643,130.687a1.914,1.914,0,0,1-2.052,0Zm0,0" transform="translate(-24.065 -57.186)"/><path class="f" d="M12.228,229.853l-4.038-23.7-8.076,28Zm0,0" transform="translate(-0.114 -111.271)"/><path class="f" d="M16.934,133.484a6.427,6.427,0,0,0-4.038-6.066v-35.7a6.777,6.777,0,0,1,.545-2.626,6.3,6.3,0,0,1,2.888-3.18L12.48,83.485a10.73,10.73,0,0,0-2.513,3.421,11.244,11.244,0,0,0-1.109,4.811v35.7A6.537,6.537,0,0,0,5,134.959a6.091,6.091,0,0,0,6.586,4.946,6.318,6.318,0,0,0,5.351-6.42Zm0,0" transform="translate(-2.801 -45.06)"/></g></g></g><g transform="translate(3764 -3550.71)"><g class="e" transform="translate(-31 570.71)"><g transform="translate(-1945.475 3981)"><path class="f" d="M8.353,34.571l6.138,3.852a9.74,9.74,0,0,1,5.249-2.458l43.384-5.686a2.051,2.051,0,0,1,2.251,1.875,2.13,2.13,0,0,1-1.759,2.4L20.232,40.243a5.727,5.727,0,0,0-1.878.6l45,28.295,55-34.572L63.35,0Zm0,0" transform="translate(-4.799 0)"/><path class="f" d="M81.591,130.687,42.236,105.951v22.426c0,5.93,4.805,11.7,13.183,15.816a62.806,62.806,0,0,0,27.2,5.725,62.775,62.775,0,0,0,27.2-5.725c8.379-4.121,13.184-9.886,13.184-15.816V105.951L83.643,130.687a1.914,1.914,0,0,1-2.052,0Zm0,0" transform="translate(-24.065 -57.186)"/><path class="f" d="M12.228,229.853l-4.038-23.7-8.076,28Zm0,0" transform="translate(-0.114 -111.271)"/><path class="f" d="M16.934,133.484a6.427,6.427,0,0,0-4.038-6.066v-35.7a6.777,6.777,0,0,1,.545-2.626,6.3,6.3,0,0,1,2.888-3.18L12.48,83.485a10.73,10.73,0,0,0-2.513,3.421,11.244,11.244,0,0,0-1.109,4.811v35.7A6.537,6.537,0,0,0,5,134.959a6.091,6.091,0,0,0,6.586,4.946,6.318,6.318,0,0,0,5.351-6.42Zm0,0" transform="translate(-2.801 -45.06)"/></g></g></g><g transform="translate(3959 -3550.71)"><g class="e" transform="translate(-31 570.71)"><g transform="translate(-1945.475 3981)"><path class="f" d="M8.353,34.571l6.138,3.852a9.74,9.74,0,0,1,5.249-2.458l43.384-5.686a2.051,2.051,0,0,1,2.251,1.875,2.13,2.13,0,0,1-1.759,2.4L20.232,40.243a5.727,5.727,0,0,0-1.878.6l45,28.295,55-34.572L63.35,0Zm0,0" transform="translate(-4.799 0)"/><path class="f" d="M81.591,130.687,42.236,105.951v22.426c0,5.93,4.805,11.7,13.183,15.816a62.806,62.806,0,0,0,27.2,5.725,62.775,62.775,0,0,0,27.2-5.725c8.379-4.121,13.184-9.886,13.184-15.816V105.951L83.643,130.687a1.914,1.914,0,0,1-2.052,0Zm0,0" transform="translate(-24.065 -57.186)"/><path class="f" d="M12.228,229.853l-4.038-23.7-8.076,28Zm0,0" transform="translate(-0.114 -111.271)"/><path class="f" d="M16.934,133.484a6.427,6.427,0,0,0-4.038-6.066v-35.7a6.777,6.777,0,0,1,.545-2.626,6.3,6.3,0,0,1,2.888-3.18L12.48,83.485a10.73,10.73,0,0,0-2.513,3.421,11.244,11.244,0,0,0-1.109,4.811v35.7A6.537,6.537,0,0,0,5,134.959a6.091,6.091,0,0,0,6.586,4.946,6.318,6.318,0,0,0,5.351-6.42Zm0,0" transform="translate(-2.801 -45.06)"/></g></g></g></g></svg>