<?xml version="1.0"?>
<svg xmlns="http://www.w3.org/2000/svg" xmlns:xlink="http://www.w3.org/1999/xlink" version="1.1" id="Capa_1" x="0px" y="0px" width="512px" height="512px" viewBox="0 0 635.788 635.788" style="enable-background:new 0 0 635.788 635.788;" xml:space="preserve" class=""><g><g>
	<g>
		<path d="M342.282,290.364c-58.502,0-105.972-47.47-105.972-106.012c0-58.546,47.46-106.001,105.972-106.001    c58.562,0,106.036,47.455,106.036,106.001C448.318,242.894,400.863,290.364,342.282,290.364L342.282,290.364z M342.302,50.815    c-73.735,0-133.507,59.776-133.507,133.527c0,73.755,59.771,133.532,133.507,133.532c73.751,0,133.518-59.776,133.518-133.532    C475.819,110.602,416.072,50.815,342.302,50.815L342.302,50.815z" data-original="#000000" class="active-path" data-old_color="#F64141" fill="#DB324D"/>
		<path d="M417.006,161.437c-1.479,1.376-87.423,80.669-104.708,96.792c13.318,7.648,28.196,8.251,34.984,7.984    c5.659-5.334,51.462-48.336,75.054-69.914C423.755,180.943,419.554,167.762,417.006,161.437L417.006,161.437z" data-original="#000000" class="active-path" data-old_color="#F64141" fill="#DB324D"/>
		<path d="M408.935,146.432c-16.24,14.664-94.464,86.941-108.467,99.948c0,0,0,0-1.853,1.663c-0.117,0-0.209,0.199-0.394,0.199    c-0.214,0.287-0.399,0.486-0.69,0.695c-5.465-4.211-13.4-14.29-13.4-14.29l1.663-1.376    c4.488-4.299,101.232-93.491,109.819-101.427C399.463,135.277,404.655,140.257,408.935,146.432L408.935,146.432z" data-original="#000000" class="active-path" data-old_color="#F64141" fill="#DB324D"/>
		<path d="M276.122,265.508c-0.277,0.277-0.408,0.418-0.408,0.418s0,0-0.141-0.141C275.854,265.795,275.991,265.508,276.122,265.508    L276.122,265.508z" data-original="#000000" class="active-path" data-old_color="#F64141" fill="#DB324D"/>
		<path d="M528.157,535.207c-0.545-10.901-12.137-30.769-32.208-32.937c9.764,0.797,31.138-12.914,33.161-32.441    c0,0,2.431,27.268,32.227,32.957C550.114,500.743,527.32,520.571,528.157,535.207L528.157,535.207z M529.849,420.39    c-5.096,49.012-58.833,83.514-83.358,81.53c50.432,5.407,79.566,55.381,80.947,82.766c-2.12-36.827,55.177-86.655,83.378-81.491    C535.956,488.947,529.849,420.39,529.849,420.39L529.849,420.39z" data-original="#000000" class="active-path" data-old_color="#F64141" fill="#DB324D"/>
		<path d="M82.848,217.887c0,0,4.226,47.592,56.232,57.486c-19.595-3.573-59.368,31.031-57.895,56.582    c-0.953-18.987-21.19-53.693-56.212-57.467C41.98,275.874,79.303,251.913,82.848,217.887L82.848,217.887z" data-original="#000000" class="active-path" data-old_color="#F64141" fill="#DB324D"/>
		<path d="M158.378,460.396c-0.666-13.342-14.864-37.683-39.413-40.317c11.951,0.981,38.11-15.852,40.59-39.715    c0,0,2.976,33.394,39.452,40.327C185.276,418.183,157.352,442.465,158.378,460.396L158.378,460.396z M160.172,338.247    c-5.086,49.002-58.833,83.504-83.358,81.501c50.437,5.437,79.576,55.391,80.962,82.774c-2.125-36.797,55.172-86.645,83.363-81.48    C166.279,406.775,160.172,338.247,160.172,338.247L160.172,338.247z" data-original="#000000" class="active-path" data-old_color="#F64141" fill="#DB324D"/>
		<path d="M404.072,330.964c-0.214,0.146-0.467,0.252-0.583,0.252c-0.215,0.137-0.506,0.215-0.876,0.37    c-0.603,0.292-1.4,0.739-2.275,1.303c-10.337,5.358-16.988,9.715-21.315,12.953c-8.412,5.796-11.592,22.25-11.592,22.25v142.813    c0,11.407,4.833,20.947,6.768,24.302c0.088,0.097,0.176,0.204,0.215,0.302c0.262,0.496,0.583,1.001,0.583,1.001v0.02    c0.253,0.447,0.516,0.837,0.778,1.371c5.465,9.569,7.487,17.582,7.546,17.728c0.816,3.171,1.293,6.516,1.293,9.969    c0,23.377-18.934,42.291-42.302,42.291c-23.353,0-42.272-18.934-42.272-42.291c0-6.273,1.624-12.068,4.104-17.397l7.347-11.854    c2.99-5.174,6.403-12.253,6.403-17.349V371.301c0-17.543-13.011-27.093-13.182-27.209c-5.708-3.268-13.463-7.644-19.4-10.571l0,0    c-1.463-0.943-2.747-1.652-3.525-2.061c-0.618-0.351-0.962-0.467-0.962-0.467c-56.145-23.83-95.529-79.479-95.529-144.512    c0-86.693,70.303-156.997,156.997-156.997c86.801,0,157.1,70.304,157.1,156.997C499.372,251.358,460.085,307.041,404.072,330.964    L404.072,330.964z M342.244,0C239.397,0,155.991,83.407,155.991,186.263c0,77.135,46.731,143.145,113.349,171.424    c0,0,0.418,0.136,1.119,0.583c4.619,2.373,22.396,12.448,24.895,31.916c0.155,1.391,0.277,3.083,0.277,4.609    c0,25.906,0,105.647,0,105.647s0.15,1.565-0.277,4.356c-0.681,4.765-2.65,13.167-8.397,24.486    c-7.687,10.93-12.296,24.35-12.296,38.917c0,37.342,30.224,67.586,67.605,67.586c37.342,0,67.74-30.225,67.74-67.586    c0-10.619-2.372-20.558-6.865-29.543c-1.692-2.674-3.103-5.184-4.337-7.575c-0.156-0.243-0.292-0.408-0.428-0.671    c-8.83-17.076-9.258-27.695-9.258-29.67c0-0.165,0-0.271,0-0.271s0-79.78,0-105.657c0-21.978,19.04-33.316,24.777-36.38    c0.409-0.165,0.682-0.271,0.992-0.428c0.137,0,0.389-0.165,0.661-0.271c66.477-28.387,113.058-94.459,113.058-171.434    C528.644,83.407,445.246,0,342.244,0L342.244,0z" data-original="#000000" class="active-path" data-old_color="#F64141" fill="#DB324D"/>
	</g>
</g></g> </svg>
