<?xml version="1.0"?>
<svg xmlns="http://www.w3.org/2000/svg" xmlns:xlink="http://www.w3.org/1999/xlink" version="1.1" id="Capa_1" x="0px" y="0px" viewBox="0 0 496.221 496.221" style="enable-background:new 0 0 496.221 496.221;" xml:space="preserve" width="512px" height="512px" class=""><g><g>
	<g>
		<path d="M408.114,264.906V46.634c12.497-4.418,19.046-18.131,14.627-30.627S404.611-3.039,392.114,1.379    c-12.497,4.418-19.046,18.131-14.627,30.627c2.416,6.835,7.793,12.211,14.627,14.627v218.272    c-21.65,4.396-35.636,25.51-31.24,47.16c3.196,15.741,15.499,28.044,31.24,31.24v56.8c0,39.764-32.235,72-72,72    c-39.764,0-72-32.236-72-72v-192.8c21.65-4.396,35.636-25.51,31.24-47.16c-3.196-15.741-15.499-28.044-31.24-31.24v-32.8    c0-48.601-39.399-88-88-88s-88,39.399-88,88v352c0.048,0.469,0.142,0.933,0.28,1.384c-12.55,4.264-19.268,17.894-15.005,30.444    c4.264,12.55,17.894,19.268,30.445,15.005c12.55-4.264,19.268-17.894,15.004-30.445c-2.399-7.061-7.943-12.606-15.004-15.004    c0.138-0.451,0.232-0.915,0.28-1.384v-352c0-39.765,32.236-72,72-72c39.765,0,72,32.235,72,72v32.8    c-21.65,4.396-35.636,25.51-31.24,47.16c3.196,15.741,15.499,28.044,31.24,31.24v192.8c0,48.601,39.399,88,88,88    c48.601,0,88-39.399,88-88v-56.8c18.611-3.827,31.976-20.199,32-39.2C440.09,285.105,426.725,268.733,408.114,264.906z     M88.114,472.106c0,4.418-3.582,8-8,8s-8-3.582-8-8s3.582-8,8-8S88.114,467.688,88.114,472.106z M216.114,168.106    c0-13.255,10.745-24,24-24s24,10.745,24,24s-10.745,24-24,24S216.114,181.361,216.114,168.106z M400.114,16.106    c4.418,0,8,3.582,8,8s-3.582,8-8,8s-8-3.582-8-8S395.695,16.106,400.114,16.106z M400.114,328.106c-13.255,0-24-10.745-24-24    s10.745-24,24-24s24,10.745,24,24S413.369,328.106,400.114,328.106z" data-original="#000000" class="active-path" data-old_color="#FCFAFA" fill="#FCFBFB"/>
	</g>
</g></g> </svg>
