<?xml version="1.0"?>
<svg xmlns="http://www.w3.org/2000/svg" height="512px" viewBox="-11 0 463 464" width="512px"><g><path d="m432.5 48c4.417969 0 8-3.582031 8-8v-32c0-4.417969-3.582031-8-8-8h-368c-13.253906 0-24 10.746094-24 24v80c.027344 2.730469.523438 5.4375 1.472656 8h-33.472656c-4.417969 0-8 3.582031-8 8v32c0 4.417969 3.582031 8 8 8 8.835938 0 16 7.164062 16 16s-7.164062 16-16 16c-4.417969 0-8 3.582031-8 8v32c0 4.417969 3.582031 8 8 8h33.472656c-.949218 2.5625-1.445312 5.269531-1.472656 8v80c.027344 2.730469.523438 5.4375 1.472656 8h-1.472656c-13.253906 0-24 10.746094-24 24v80c0 13.253906 10.746094 24 24 24h368c4.417969 0 8-3.582031 8-8v-32c0-4.417969-3.582031-8-8-8-8.835938 0-16-7.164062-16-16s7.164062-16 16-16c4.417969 0 8-3.582031 8-8v-24h16c4.417969 0 8-3.582031 8-8v-32c0-4.417969-3.582031-8-8-8-8.835938 0-16-7.164062-16-16s7.164062-16 16-16c4.417969 0 8-3.582031 8-8v-32c0-4.417969-3.582031-8-8-8h-33.472656c.949218-2.5625 1.445312-5.269531 1.472656-8v-80c-.027344-2.730469-.523438-5.4375-1.472656-8h33.472656c4.417969 0 8-3.582031 8-8v-32c0-4.417969-3.582031-8-8-8-8.835938 0-16-7.164062-16-16s7.164062-16 16-16zm-8-16h-336v-16h336zm-368 72v-80c0-4.417969 3.582031-8 8-8h8v96h-8c-4.417969 0-8-3.582031-8-8zm-40 24h336v16h-336zm22.863281 56h281.136719v-16h-281.136719c-.734375-2.804688-1.847656-5.496094-3.3125-8h316.449219v32h-316.449219c1.464844-2.503906 2.578125-5.195312 3.3125-8zm-22.863281 24h336v16h-336zm56 32v96h-8c-4.417969 0-8-3.582031-8-8v-80c0-4.417969 3.582031-8 8-8zm-40 200v-80c0-4.417969 3.582031-8 8-8h8v96h-8c-4.417969 0-8-3.582031-8-8zm368 8h-336v-16h336zm-22.863281-56h-281.136719v16h281.136719c.734375 2.804688 1.847656 5.496094 3.3125 8h-316.449219v-32h316.449219c-1.464844 2.503906-2.578125 5.195312-3.3125 8zm22.863281-24h-336v-16h336zm24-32h-336v-16h336zm-22.863281-56h-297.136719v16h297.136719c.734375 2.804688 1.847656 5.496094 3.3125 8h-316.449219v-32h316.449219c-1.464844 2.503906-2.578125 5.195312-3.3125 8zm22.863281-24h-336v-16h336zm-40-120v80c0 4.417969-3.582031 8-8 8h-8v-96h8c4.417969 0 8 3.582031 8 8zm40-24h-336v-16h336zm-336-32v-32h316.449219c-1.464844 2.503906-2.578125 5.195312-3.3125 8h-281.136719v16h281.136719c.734375 2.804688 1.847656 5.496094 3.3125 8zm0 0" data-original="#000000" class="active-path" data-old_color="#F9F9F9" fill="#FDF9F9"/></g> </svg>
