<?xml version="1.0"?>
<svg xmlns="http://www.w3.org/2000/svg" xmlns:xlink="http://www.w3.org/1999/xlink" version="1.1" id="Capa_1" x="0px" y="0px" viewBox="0 0 498.752 498.752" style="enable-background:new 0 0 498.752 498.752;" xml:space="preserve" width="512px" height="512px" class=""><g><g>
	<g>
		<path d="M251.504,396.24c-20.832,3.792-37.536,18.736-43.624,39.008l-18.632,62.128h309.504l-18.632-62.128    c-6.088-20.272-22.8-35.216-43.624-39L384,386.696v-4.144c19.632-11.4,34-30.848,38.488-53.84    C437.032,325.704,448,312.8,448,297.376V218.36c0-22.328-14.624-41.8-35.832-48.136l-4-4C396.744,154.8,383,146.56,368,141.88    V57.376c0-13.232-10.768-24-24-24H229.2c-6.608-18.616-24.344-32-45.2-32s-38.592,13.384-45.2,32H24c-13.232,0-24,10.768-24,24    v240c0,13.232,10.768,24,24,24h96v32h-16v16h160v-16h-16v-32h3.056c4.072,3.56,8.968,6.2,14.456,7.336    c4.488,22.992,18.864,42.44,38.488,53.84v4.144L251.504,396.24z M424,311.152v-27.544c4.76,2.776,8,7.88,8,13.776    S428.76,308.376,424,311.152z M232,73.376v-24h112c4.416,0,8,3.592,8,8V138.4c-4.44-0.608-8.928-1.024-13.496-1.024    c-24.856,0-47.528,9.328-64.88,24.568l-4.376-15.32c-4.216-14.768-16.736-25.944-31.888-28.472L216,114.6v-5.632    C226.216,99.84,232,87.08,232,73.376z M232,353.376h-96v-32h96V353.376z M240,235.88v21.496h-16v16h16v24    c0,2.776,0.464,5.424,1.136,8H24c-4.416,0-8-3.584-8-8v-24h192v-16H16v-200c0-4.408,3.584-8,8-8h112v24    c0,13.704,5.784,26.464,16,35.592v5.632l-21.36,3.56c-15.16,2.52-27.672,13.696-31.888,28.464l-13.36,46.752h164.392    C243.576,206.264,240,220.648,240,235.88z M106.608,177.368l7.528-26.352c2.52-8.856,10.04-15.56,19.128-17.08L168,128.152    v-26.936l-3.176-2.4C156.672,92.656,152,83.384,152,73.376v-24c0-17.648,14.352-32,32-32s32,14.352,32,32v24    c0,10.008-4.672,19.28-12.824,25.44l-3.176,2.4v26.936l34.736,5.792c9.088,1.512,16.6,8.216,19.128,17.08l7,24.456    c-0.488,0.624-0.944,1.256-1.416,1.888H106.608z M264,311.144c-4.76-2.768-8-7.872-8-13.768s3.24-11,8-13.776V311.144z     M264,257.376v9.136c-2.848,0.736-5.52,1.864-8,3.312V235.88c0-45.496,37.016-82.504,82.504-82.504    c22.048,0,42.768,8.584,58.344,24.168l7.056,7.056l2.16,0.536C421.336,188.96,432,202.616,432,218.36v51.464    c-2.48-1.448-5.152-2.576-8-3.312v-9.136h-25.376c-21.68,0-42.392-10.352-55.4-27.688l-6.352-8.496l-15.904,15.904    c-13.08,13.08-30.472,20.28-48.968,20.28H264z M280,313.376v-40.368c19.752-1.832,38.088-10.408,52.28-24.608l3.112-3.112    c16.056,17.704,39.16,28.08,63.232,28.08H408v40c0,35.288-28.712,64-64,64C308.712,377.368,280,348.664,280,313.376z     M320.672,389.888c7.392,2.256,15.216,3.488,23.328,3.488s15.936-1.232,23.328-3.488L344,407.376L320.672,389.888z     M331.824,418.24l-16.32,16.32l-10.592-31.768l5.088-0.92L331.824,418.24z M378.008,401.88l5.088,0.92l-10.592,31.768    l-16.32-16.32L378.008,401.88z M308.512,464.192L344,428.688l35.504,35.504L399,405.696l34.64,6.296    c14.864,2.696,26.808,13.376,31.152,27.856l12.456,41.528H210.752l12.464-41.528c4.344-14.48,16.28-25.16,31.16-27.856    l34.64-6.296L308.512,464.192z" data-original="#000000" class="active-path" data-old_color="#000000" fill="#FDFDFD"/>
	</g>
</g><g>
	<g>
		<rect x="256" y="65.376" width="16" height="16" data-original="#000000" class="active-path" data-old_color="#000000" fill="#FDFDFD"/>
	</g>
</g><g>
	<g>
		<rect x="288" y="65.376" width="16" height="16" data-original="#000000" class="active-path" data-old_color="#000000" fill="#FDFDFD"/>
	</g>
</g><g>
	<g>
		<rect x="320" y="65.376" width="16" height="16" data-original="#000000" class="active-path" data-old_color="#000000" fill="#FDFDFD"/>
	</g>
</g><g>
	<g>
		<rect x="32" y="225.376" width="16" height="16" data-original="#000000" class="active-path" data-old_color="#000000" fill="#FDFDFD"/>
	</g>
</g><g>
	<g>
		<rect x="64" y="225.376" width="16" height="16" data-original="#000000" class="active-path" data-old_color="#000000" fill="#FDFDFD"/>
	</g>
</g><g>
	<g>
		<rect x="96" y="225.376" width="16" height="16" data-original="#000000" class="active-path" data-old_color="#000000" fill="#FDFDFD"/>
	</g>
</g></g> </svg>
